<svg width="20" height="22" viewBox="0 0 20 22" fill="none" xmlns="http://www.w3.org/2000/svg">
<path d="M19.091 17.5155C19.0001 17.0173 18.5976 16.7077 18.5976 16.7077C18.5976 16.7077 18.5976 16.7077 17.8189 16.254C17.0402 15.8013 12.2749 13.8965 12.184 13.4438C12.0921 12.9901 12.0466 11.0408 12.0466 11.0408L9.98511 11.0031V10.9954L9.77906 10.9992L9.57301 10.9954V11.0031L7.51154 11.0408C7.51154 11.0408 7.46511 12.9901 7.37417 13.4438C7.28324 13.8965 2.51796 15.8013 1.73922 16.254C0.960489 16.7077 0.960489 16.7077 0.960489 16.7077C0.960489 16.7077 0.49228 17.3113 0.401347 17.8095C0.309447 18.3077 0.181753 21.1499 0.0908203 21.9209H9.75778H9.80421H19.4712C19.3764 21.1508 19.1829 18.0146 19.091 17.5155Z" fill="#00ACEE"/>
<path d="M19.5574 22.0002H0L0.0106411 21.9121C0.0522382 21.561 0.102542 20.7561 0.151878 19.9764C0.210887 19.039 0.271832 18.0707 0.322135 17.796C0.415971 17.2842 0.877408 16.6854 0.896755 16.6593L0.919005 16.6399L1.69774 16.1862C1.96474 16.0305 2.6893 15.7093 3.52801 15.3369C4.91426 14.7216 7.23402 13.6914 7.29593 13.4273C7.38493 12.9862 7.43136 11.0582 7.43136 11.0379L7.4333 10.9624L9.57313 10.916L9.77918 10.9199L10.0665 10.9141L10.0655 10.9247L12.1222 10.9624L12.1241 11.0379C12.1241 11.0572 12.1715 12.9852 12.2605 13.4273C12.3214 13.6914 14.6412 14.7207 16.0274 15.3359C16.8662 15.7084 17.5917 16.0295 17.8587 16.1853L18.6374 16.639C18.6635 16.6583 19.0727 16.9776 19.1685 17.4999C19.2207 17.7824 19.303 18.8813 19.3833 19.9435C19.4461 20.7813 19.5051 21.5735 19.5458 21.9112L19.5574 22.0002ZM0.176062 21.8425H19.3804C19.3407 21.4652 19.2856 20.731 19.2265 19.9561C19.1463 18.8988 19.064 17.8047 19.0137 17.5299C18.9296 17.0685 18.5533 16.7734 18.5503 16.7705L17.7794 16.3226C17.5201 16.1708 16.7994 15.8515 15.9636 15.481C13.3972 14.3415 12.1647 13.7485 12.1067 13.4602C12.0244 13.051 11.979 11.4877 11.9693 11.1191L9.90203 11.0814V11.0775L9.77918 11.0795L9.62923 11.0766L9.57313 11.0834L7.58614 11.1191C7.57647 11.4877 7.53197 13.051 7.44974 13.4602C7.3917 13.7485 6.15927 14.3424 3.59186 15.482C2.75701 15.8525 2.03632 16.1717 1.77706 16.3236L1.01187 16.7686C0.947058 16.8547 0.55624 17.3887 0.475948 17.825C0.427579 18.09 0.367602 19.0545 0.308592 19.9861C0.261191 20.7416 0.215724 21.4575 0.176062 21.8425Z" fill="#00ACEE"/>
<path d="M12.599 13.8627C12.3456 13.7118 12.185 13.5879 12.1695 13.5086C12.0873 13.1023 12.0428 11.4897 12.0341 11.1782C12.0012 11.1579 11.9673 11.1376 11.9325 11.1182L9.9823 11.0824V11.0747L9.77721 11.0786L9.57213 11.0747L9.5731 11.0824L7.52323 11.1202C7.52323 11.1202 7.47777 13.0578 7.38683 13.5086C7.36845 13.5996 7.1595 13.7495 6.8335 13.9343C7.43907 14.5321 8.4877 14.9278 9.68241 14.9278C10.9235 14.9287 12.0051 14.5002 12.599 13.8627Z" fill="white"/>
<path d="M9.6824 15.0854C8.48963 15.0854 7.38295 14.6965 6.7232 14.0455L6.5752 13.8994L6.75609 13.7968C7.13821 13.5802 7.21947 13.4873 7.23494 13.466C7.32104 13.0133 7.36554 11.1356 7.36651 11.1163L7.37038 10.9653L9.41057 10.9276V10.9218L9.57695 10.917L9.78204 10.9208L10.1487 10.915L10.1477 10.9276L11.977 10.9605L12.0118 10.9808C12.0476 11.0002 12.0834 11.0215 12.1173 11.0427L12.1898 11.0872L12.1918 11.1733C12.214 12.0343 12.2614 13.1448 12.3214 13.467C12.3349 13.4863 12.4007 13.5608 12.6793 13.7272L12.8457 13.8268L12.7132 13.969C12.0641 14.6684 10.9303 15.0854 9.6824 15.0854ZM7.09758 13.9613C7.71186 14.4711 8.65892 14.771 9.6824 14.771C10.7426 14.771 11.7419 14.4372 12.3465 13.8897C12.1008 13.7262 12.0331 13.6285 12.0147 13.5395C11.9364 13.1506 11.8919 11.7373 11.8793 11.2749L9.8188 11.2372V11.2352L9.78107 11.2362L9.66692 11.2343L9.57599 11.2401L7.67703 11.2749C7.66446 11.7441 7.61996 13.1516 7.5416 13.5395C7.51935 13.6421 7.43132 13.7552 7.09758 13.9613Z" fill="#1A3657"/>
<path d="M11.3406 0.874559C11.3406 0.874559 11.8059 0.210941 12.6117 0.562098C13.4176 0.913254 15.2411 1.85548 15.3359 7.62779C15.4094 12.0816 16.7376 14.4662 17.2571 14.44C17.2571 14.44 17.4351 15.1743 16.3226 15.1491C16.3226 15.1491 15.9056 15.6957 16.2452 16.0081C16.2452 16.0081 13.5501 15.0118 12.723 14.1788C11.8959 13.3459 11.922 11.6308 11.8843 10.7456C11.8465 9.86145 7.50787 10.883 7.50787 10.883C7.50787 10.883 7.94513 14.3897 6.05294 14.9905C4.71023 15.4171 4.46258 15.747 4.46258 15.747L3.85314 16.2935C3.85314 16.2935 3.87539 15.864 3.68481 15.5709C3.68481 15.5709 2.45238 15.9424 1.78296 15.1027C1.78296 15.1027 2.19313 14.8879 2.35951 14.8289C2.35951 14.8289 4.95111 14.2824 4.4355 8.34945C4.391 7.84158 3.23402 6.35183 4.4829 4.03593C4.4829 4.03593 5.5828 -0.127639 9.37684 0.00198867C9.37781 0.00295605 10.6489 0.0281078 11.3406 0.874559Z" fill="#1A3657"/>
<path d="M12.7586 2.83569C12.7586 2.83569 13.2345 4.90974 13.7782 5.52209C13.7782 5.52209 13.3699 8.00437 13.0642 9.16038C12.7586 10.3164 11.5339 12.4243 10.7522 12.492C9.97058 12.5597 9.42595 12.5936 9.42595 12.5936C9.42595 12.5936 7.86268 12.049 7.31805 10.7914C6.77341 9.53282 6.46772 7.96954 6.36615 7.83314C6.26458 7.69674 7.55408 6.02319 10.4117 5.01132C12.5893 4.24129 12.7586 2.83569 12.7586 2.83569Z" fill="white"/>
<path d="M9.40476 12.7531L9.37477 12.7425C9.30802 12.7192 7.73894 12.1611 7.17399 10.8542C6.82187 10.0396 6.57132 9.11191 6.4059 8.49763C6.33625 8.23934 6.26466 7.97235 6.23564 7.92108C6.21339 7.89109 6.18727 7.82821 6.21533 7.73244C6.35076 7.28551 7.7815 5.77544 10.3586 4.86321C12.4046 4.13865 12.5942 2.86946 12.601 2.81528L12.9105 2.7998C12.9154 2.82012 13.3836 4.84193 13.8943 5.41655L13.9446 5.47266L13.9321 5.54618C13.9282 5.57133 13.52 8.04877 13.2152 9.19898C12.9154 10.3327 11.6742 12.5683 10.7649 12.6477C9.99002 12.7154 9.44055 12.7492 9.43474 12.7492L9.40476 12.7531ZM6.52682 7.79919C6.56745 7.89109 6.61582 8.06522 6.71062 8.41541C6.87411 9.02098 7.12079 9.93515 7.46324 10.7294C7.93435 11.8196 9.2403 12.3545 9.44925 12.4339C9.57792 12.4252 10.0751 12.3923 10.7388 12.3342C11.3792 12.2791 12.5806 10.3705 12.9125 9.11869C13.1843 8.09134 13.5422 5.97859 13.6119 5.56552C13.2375 5.08667 12.9095 4.02353 12.7364 3.3841C12.4839 3.8939 11.8822 4.65716 10.466 5.15923C7.91307 6.06372 6.65451 7.4964 6.52682 7.79919Z" fill="#1A3657"/>
<path d="M10.8403 10.5221C10.937 10.5666 10.284 10.7882 10.0635 10.7882C9.77809 10.7882 9.13382 10.5695 9.22959 10.5221C9.64556 10.3122 9.60493 10.3567 10.049 10.3567C10.4939 10.3567 10.4427 10.3374 10.8403 10.5221Z" fill="#1A3657"/>
<path d="M6.86453 14.3521L6.76006 14.3927L6.66235 14.8261L8.82443 17.6876L9.44742 15.6735L8.8196 15.1869L6.86453 14.3521Z" fill="#1A3657" fill-opacity="0.95"/>
<path d="M12.5845 14.354L10.5589 15.2169L9.9707 15.6735L10.5927 17.6876L12.7548 14.8261L12.7122 14.3859L12.5845 14.354Z" fill="#1A3657" fill-opacity="0.95"/>
</svg>
