<svg width="24" height="22" viewBox="0 0 24 22" fill="none" xmlns="http://www.w3.org/2000/svg">
<path d="M21.5639 16.9977C21.2748 16.5665 17.9073 15.164 16.0036 14.9041C15.8764 14.8864 15.6762 14.8548 15.4658 14.8203L15.2516 14.4943L14.985 14.4385L14.2319 12.4492H11.8559H11.5678H9.19458L8.38823 14.4916L8.21611 14.5977L8.18618 14.7998C7.93174 14.8417 7.67075 14.8836 7.51827 14.9051C5.61372 15.164 2.24614 16.5665 1.95802 16.9986C1.66991 17.4307 0.581055 21.9624 0.581055 21.9624H22.9409C22.9409 21.9606 21.852 17.4289 21.5639 16.9977Z" fill="#A0041E"/>
<path d="M23.04 22.0399H0.47998L0.503366 21.943C0.548268 21.7577 1.59877 17.3927 1.89156 16.9541C2.19745 16.4959 5.57439 15.0896 7.507 14.827C7.64732 14.8074 7.88024 14.7702 8.11597 14.732L8.14217 14.5504L8.32364 14.4396L9.14028 12.3721H14.2852L15.0438 14.3725L15.3002 14.4256L15.5125 14.7497C15.7089 14.7813 15.8942 14.8111 16.0139 14.8279C17.9465 15.0905 21.3234 16.4968 21.6293 16.955C21.9221 17.3936 22.9726 21.7586 23.0166 21.944L23.04 22.0399ZM0.680165 21.8825H22.8398C22.4572 20.2946 21.7154 17.3666 21.4974 17.0416C21.2402 16.6551 17.9605 15.2507 15.9924 14.9825C15.8652 14.9648 15.6631 14.9331 15.4526 14.8987L15.418 14.8931L15.2038 14.5653L14.9269 14.5075L14.1758 12.5285H9.24786L8.45086 14.5448L8.28716 14.6454L8.25536 14.868L8.19829 14.8773C7.94292 14.9192 7.68099 14.9611 7.52852 14.9825C5.56035 15.2507 2.2807 16.656 2.02346 17.0416C1.80456 17.3666 1.06276 20.2946 0.680165 21.8825Z" fill="#A0041E"/>
<path d="M8.62941 14.6941L8.51529 14.7639L8.40771 15.5089L10.7847 20.429L11.4685 16.9655L10.78 16.1292L8.62941 14.6941ZM14.9174 14.6969L12.6911 16.1804L12.0438 16.9655L12.7276 20.429L15.1045 15.5089L15.0578 14.7509L14.9174 14.6969ZM12.5788 15.9085L14.7846 14.5693L14.0849 12.7244H9.42641L8.72296 14.5106V14.5469L10.9428 15.8982L11.4675 15.3804L11.7772 15.0787L12.0438 15.3804L12.5788 15.9085Z" fill="#FFAC33"/>
<path d="M15.6139 6.05616L14.7897 4.4804L12.2285 4.31742L12.2313 4.24292L11.6457 4.28017L11.0601 4.24292L11.0639 4.31742L8.50264 4.4804L7.67852 6.05616L7.61304 8.27824C7.61304 8.27824 8.39413 11.5592 8.61022 12.1627C8.82724 12.7671 10.4745 14.1911 10.8216 14.2339C11.0695 14.2646 11.4483 14.2516 11.6448 14.2413C11.8422 14.2516 12.2201 14.2646 12.4689 14.2339C12.815 14.1911 14.4633 12.7662 14.6803 12.1627C14.8964 11.5583 15.6775 8.27824 15.6775 8.27824L15.6139 6.05616Z" fill="white"/>
<path d="M12.0663 14.4114C11.9026 14.4114 11.7483 14.4058 11.6444 14.4002C11.5406 14.4058 11.3862 14.4114 11.2225 14.4114C11.0523 14.4114 10.911 14.4049 10.8016 14.3909C10.3713 14.3378 8.68376 12.8375 8.46112 12.2163C8.2441 11.61 7.49107 8.44922 7.45927 8.31418L7.45459 8.29462L7.52101 6.0148L8.40313 4.32915L10.8979 4.1699L10.8942 4.07397L11.6454 4.1224L12.3956 4.07397L12.3918 4.1699L14.8876 4.32915L15.7697 6.0148L15.8361 8.29462L15.8315 8.31418C15.7996 8.44829 15.0466 11.61 14.8296 12.2163C14.607 12.8366 12.9194 14.3369 12.4891 14.3909C12.3787 14.4049 12.2375 14.4114 12.0663 14.4114ZM11.6454 14.0845H11.6538C11.7361 14.0892 11.8979 14.0966 12.0672 14.0966C12.2244 14.0966 12.3535 14.0901 12.4498 14.078C12.7127 14.0417 14.3207 12.6959 14.5312 12.1102C14.7332 11.5449 15.4526 8.53769 15.519 8.26203L15.4554 6.09676L14.6893 4.63182L12.0635 4.46512L12.0654 4.41204L11.6454 4.43904L11.2253 4.41204L11.2282 4.46512L8.60144 4.63182L7.83531 6.09676L7.7717 8.26203C7.83718 8.53862 8.55654 11.5449 8.75859 12.1102C8.96907 12.6959 10.5771 14.0426 10.8409 14.078C10.9372 14.0901 11.0654 14.0966 11.2225 14.0966C11.3919 14.0966 11.5546 14.0892 11.636 14.0845H11.6454Z" fill="#1A3657"/>
<path d="M12.593 12.3002C12.593 12.4184 12.2169 12.4985 11.6781 12.4985C11.1402 12.4985 10.6426 12.4184 10.6426 12.3002C10.6426 12.1819 11.1225 12.2843 11.6603 12.2843C12.2001 12.2843 12.593 12.1819 12.593 12.3002Z" fill="#1A3657"/>
<path d="M17.3045 5.17875C17.3045 5.17875 16.674 4.18878 16.3756 4.02301C16.0772 3.85817 16.7732 3.62628 16.7732 3.62628C16.7732 3.62628 15.2475 2.63631 14.8163 2.14086C14.385 1.6454 12.5946 1.38185 11.9978 1.41537C11.401 1.44797 10.9697 1.54669 10.9697 1.54669C10.9697 1.54669 10.4057 1.11736 10.1409 0.919922L10.0081 1.84377C10.0081 1.84377 8.61523 1.8773 8.28408 1.8773L8.38324 2.43887C8.38324 2.43887 7.55444 2.60464 7.28877 2.73596C7.02405 2.8682 6.89121 3.49496 6.79112 3.62721C6.69196 3.75945 6.49272 5.67421 6.22705 5.70773L6.72377 5.64068C6.72377 5.64068 6.59094 6.79642 6.35895 7.29187C6.12696 7.78732 6.29253 7.7538 6.29253 7.7538H6.62368C6.62368 7.7538 6.69103 8.38056 6.69103 8.74377C6.69103 9.10698 6.9885 8.97473 6.9885 8.97473L7.48615 9.66855L7.8173 9.80079C7.8173 9.80079 7.55818 8.14494 7.89494 7.95496C8.54507 7.58803 10.4739 5.7543 10.2794 5.30075L10.4047 4.84814L10.6695 5.25698C10.6695 5.25698 10.6105 4.99343 10.8434 4.67399C10.8434 4.67399 12.3055 7.27977 14.4075 7.67557C15.009 7.78919 15.4337 7.94006 15.7358 8.10303L15.5553 9.23643L16.0024 8.97473L16.1016 8.35449C16.4804 8.68882 16.472 9.01571 16.4841 9.1284C16.5066 9.32676 17.1034 5.60622 16.805 5.21042L17.3045 5.17875Z" fill="#1A3657"/>
</svg>
