<svg width="17" height="18" viewBox="0 0 17 18" fill="none" xmlns="http://www.w3.org/2000/svg">
<path fill-rule="evenodd" clip-rule="evenodd" d="M5.96717 1.876C6.1206 1.72256 6.32871 1.63636 6.54571 1.63636H9.81843C10.0354 1.63636 10.2435 1.72256 10.397 1.876C10.5504 2.02944 10.6366 2.23755 10.6366 2.45455V3.27273H5.72753V2.45455C5.72753 2.23755 5.81373 2.02944 5.96717 1.876ZM12.273 2.45455V3.27273H13.9093L13.9177 3.27277H15.5455C15.9973 3.27277 16.3636 3.63908 16.3636 4.09095C16.3636 4.54282 15.9973 4.90913 15.5455 4.90913H14.7275V15.5455C14.7275 16.1964 14.4689 16.8208 14.0086 17.2811C13.5483 17.7414 12.924 18 12.273 18H4.09116C3.44018 18 2.81585 17.7414 2.35554 17.2811C1.89522 16.8208 1.63662 16.1964 1.63662 15.5455V4.90913H0.818182C0.366312 4.90913 0 4.54282 0 4.09095C0 3.63908 0.366312 3.27277 0.818182 3.27277H2.44642L2.4548 3.27273H4.09116V2.45455C4.09116 1.80356 4.34977 1.17924 4.81008 0.71892C5.2704 0.258603 5.89472 0 6.54571 0H9.81843C10.4694 0 11.0937 0.258603 11.5541 0.71892C12.0144 1.17924 12.273 1.80356 12.273 2.45455ZM3.27298 4.90913V15.5455C3.27298 15.7625 3.35918 15.9706 3.51262 16.124C3.66606 16.2774 3.87417 16.3636 4.09116 16.3636H12.273C12.49 16.3636 12.6981 16.2774 12.8515 16.124C13.005 15.9706 13.0912 15.7624 13.0912 15.5455V4.90913H3.27298ZM6.54495 7.36373C6.99682 7.36373 7.36313 7.73004 7.36313 8.18191V13.091C7.36313 13.5429 6.99682 13.9092 6.54495 13.9092C6.09308 13.9092 5.72677 13.5429 5.72677 13.091V8.18191C5.72677 7.73004 6.09308 7.36373 6.54495 7.36373ZM10.6364 8.18191C10.6364 7.73004 10.2701 7.36373 9.81818 7.36373C9.36631 7.36373 9 7.73004 9 8.18191V13.091C9 13.5429 9.36631 13.9092 9.81818 13.9092C10.2701 13.9092 10.6364 13.5429 10.6364 13.091V8.18191Z" fill="#667C97"/>
</svg>
