<svg width="16" height="16" viewBox="0 0 16 16" fill="none" xmlns="http://www.w3.org/2000/svg">
<path d="M16 8C16 12.4182 12.4182 16 8 16C3.58222 16 0 12.4182 0 8C0 3.58222 3.58222 0 8 0C12.4182 0 16 3.58222 16 8Z" fill="#FFCC4D"/>
<path d="M6.86948 7.02881C6.84281 6.96881 6.20326 5.56348 4.88859 5.56348C3.57437 5.56348 2.93437 6.96881 2.9077 7.02881C2.86681 7.12081 2.89348 7.22837 2.9717 7.29148C3.05037 7.35503 3.16148 7.35681 3.24281 7.2977C3.24859 7.2937 3.8037 6.89681 4.88859 6.89681C5.96681 6.89681 6.52148 7.28837 6.53392 7.29725C6.57304 7.32659 6.6197 7.34125 6.66637 7.34125C6.71526 7.34125 6.76459 7.32481 6.80459 7.29281C6.88415 7.2297 6.91037 7.12125 6.86948 7.02881Z" fill="#66471B"/>
<path d="M13.7778 6.00009C13.7778 7.59565 12.4844 8.88898 10.8889 8.88898C9.29333 8.88898 8 7.59565 8 6.00009C8 4.40454 9.29333 3.11121 10.8889 3.11121C12.4844 3.11121 13.7778 4.40454 13.7778 6.00009Z" fill="#F5F8FA"/>
<path d="M10.8892 7.11102C11.5028 7.11102 12.0003 6.61355 12.0003 5.99991C12.0003 5.38626 11.5028 4.88879 10.8892 4.88879C10.2755 4.88879 9.77808 5.38626 9.77808 5.99991C9.77808 6.61355 10.2755 7.11102 10.8892 7.11102Z" fill="#292F33"/>
<path d="M3.11133 9.44995C3.11133 11.2117 5.154 13.45 8.00022 13.45C10.8464 13.45 12.8891 11.2277 12.8891 9.44995C12.8891 9.44995 8.29666 10.6748 3.11133 9.44995Z" fill="#66471B"/>
<path d="M8.24238 10.4907L7.7575 10.4885C6.32816 10.4556 5.3335 10.2236 5.3335 10.2236V13.3174C5.3335 14.6507 6.22238 15.9841 8.00016 15.9841C9.77794 15.9841 10.6668 14.6507 10.6668 13.3174V10.2419C9.81261 10.417 8.98372 10.4827 8.24238 10.4907Z" fill="#DD2E44"/>
<path d="M7.99975 14.1528C8.13352 14.1528 8.24197 14.0443 8.24197 13.9105V10.491L7.75708 10.4888V13.9105C7.75752 14.0443 7.86597 14.1528 7.99975 14.1528Z" fill="#A0041E"/>
</svg>
