<svg width="20" height="18" viewBox="0 0 20 18" fill="none" xmlns="http://www.w3.org/2000/svg">
<path fill-rule="evenodd" clip-rule="evenodd" d="M8.46932 0.345481C8.84703 0.118987 9.27317 0 9.70662 0C10.1401 0 10.5662 0.118987 10.9439 0.345481C11.3216 0.571975 11.6382 0.898329 11.863 1.29306L11.8654 1.29731L18.9859 13.9582L18.9927 13.9706C19.213 14.3768 19.3295 14.8373 19.3307 15.3063C19.3319 15.7754 19.2179 16.2366 18.9998 16.644C18.7817 17.0515 18.4673 17.3911 18.0877 17.629C17.7082 17.8668 17.2768 17.9947 16.8364 17.9999L16.8272 18L2.57684 17.9999C2.13648 17.9948 1.70508 17.8668 1.32554 17.629C0.945994 17.3911 0.631542 17.0515 0.413468 16.644C0.195393 16.2366 0.0812964 15.7754 0.0825294 15.3063C0.0837625 14.8373 0.200282 14.3768 0.420496 13.9706L0.427325 13.9582L7.54787 1.29732L8.26905 1.75742L7.55028 1.29306C7.77508 0.898329 8.09161 0.571975 8.46932 0.345481ZM8.98886 2.22003L1.87376 14.8713C1.80215 15.0054 1.76429 15.157 1.76388 15.3113C1.76347 15.4677 1.8015 15.6214 1.87419 15.7572C1.94688 15.8931 2.0517 16.0063 2.17822 16.0856C2.30362 16.1641 2.44601 16.2067 2.59145 16.2091H16.8218C16.9672 16.2067 17.1096 16.1641 17.235 16.0856C17.3615 16.0063 17.4664 15.8931 17.5391 15.7572C17.6117 15.6214 17.6498 15.4677 17.6494 15.3113C17.649 15.157 17.6111 15.0054 17.5395 14.8713L10.4254 2.22181C10.4251 2.22122 10.4247 2.22062 10.4244 2.22003C10.3495 2.08925 10.2444 1.98111 10.1191 1.90595C9.99315 1.83045 9.85111 1.79079 9.70662 1.79079C9.56214 1.79079 9.42009 1.83045 9.29419 1.90595C9.16885 1.98111 9.06373 2.08925 8.98886 2.22003Z" fill="#00ACEE"/>
<path fill-rule="evenodd" clip-rule="evenodd" d="M8.86572 13.5227C8.86572 13.0282 9.24211 12.6273 9.7064 12.6273H9.71481C10.1791 12.6273 10.5555 13.0282 10.5555 13.5227C10.5555 14.0172 10.1791 14.4181 9.71481 14.4181H9.7064C9.24211 14.4181 8.86572 14.0172 8.86572 13.5227Z" fill="#00ACEE"/>
<path fill-rule="evenodd" clip-rule="evenodd" d="M9.7064 5.46423C10.1707 5.46423 10.5471 5.86512 10.5471 6.35963V9.94121C10.5471 10.4357 10.1707 10.8366 9.7064 10.8366C9.24211 10.8366 8.86572 10.4357 8.86572 9.94121V6.35963C8.86572 5.86512 9.24211 5.46423 9.7064 5.46423Z" fill="#00ACEE"/>
</svg>
