<svg width="26" height="27" viewBox="0 0 26 27" fill="none" xmlns="http://www.w3.org/2000/svg">
<path d="M1.13311 1.5C1.13311 0.78203 1.71514 0.2 2.43311 0.2H18.6137C18.9299 0.2 19.2352 0.315236 19.4726 0.524136L25.2253 5.58731C25.5057 5.83411 25.6664 6.18962 25.6664 6.56317V25.5C25.6664 26.218 25.0844 26.8 24.3664 26.8H2.4331C1.71513 26.8 1.13311 26.218 1.13311 25.5V1.5Z" fill="white" stroke="#00ACEE" stroke-width="0.4"/>
<mask id="path-2-inside-1_1_5234" fill="white">
<path fill-rule="evenodd" clip-rule="evenodd" d="M25.8653 6.50012H20C19.1716 6.50012 18.5 5.82855 18.5 5.00012V0.00012207H18.6139C18.9787 0.00012207 19.3311 0.133086 19.6049 0.374125L25.3577 5.4373C25.6654 5.70812 25.8482 6.09239 25.8653 6.50012Z"/>
</mask>
<path fill-rule="evenodd" clip-rule="evenodd" d="M25.8653 6.50012H20C19.1716 6.50012 18.5 5.82855 18.5 5.00012V0.00012207H18.6139C18.9787 0.00012207 19.3311 0.133086 19.6049 0.374125L25.3577 5.4373C25.6654 5.70812 25.8482 6.09239 25.8653 6.50012Z" fill="#00ACEE"/>
<path d="M25.8653 6.50012V6.90012H26.2825L26.265 6.4833L25.8653 6.50012ZM18.5 0.00012207V-0.399878H18.1V0.00012207H18.5ZM19.6049 0.374125L19.8692 0.073859V0.0738589L19.6049 0.374125ZM25.3577 5.4373L25.0934 5.73756L25.3577 5.4373ZM25.8653 6.10012H20V6.90012H25.8653V6.10012ZM20 6.10012C19.3925 6.10012 18.9 5.60764 18.9 5.00012H18.1C18.1 6.04946 18.9507 6.90012 20 6.90012V6.10012ZM18.9 5.00012V0.00012207H18.1V5.00012H18.9ZM18.5 0.400122H18.6139V-0.399878H18.5V0.400122ZM18.6139 0.400122C18.8815 0.400122 19.1398 0.49763 19.3407 0.674391L19.8692 0.0738589C19.5223 -0.231457 19.076 -0.399878 18.6139 -0.399878V0.400122ZM19.3407 0.674391L25.0934 5.73756L25.622 5.13703L19.8692 0.073859L19.3407 0.674391ZM25.0934 5.73756C25.3191 5.93616 25.4531 6.21796 25.4657 6.51695L26.265 6.4833C26.2432 5.96681 26.0117 5.48008 25.622 5.13703L25.0934 5.73756Z" fill="#00ACEE" mask="url(#path-2-inside-1_1_5234)"/>
<path d="M10.6797 9.1V9.9H18.953V9.1H10.6797Z" fill="#00ACEE"/>
<path d="M7.84668 18.1V18.9H16.12V18.1H7.84668Z" fill="#00ACEE"/>
<path d="M7.84668 12.1V12.9H18.9533V12.1H7.84668Z" fill="#00ACEE"/>
<path d="M7.84668 15.1V15.9H18.9533V15.1H7.84668Z" fill="#00ACEE"/>
</svg>
