<svg width="22" height="16" viewBox="0 0 22 16" fill="none" xmlns="http://www.w3.org/2000/svg">
<path fill-rule="evenodd" clip-rule="evenodd" d="M4.5624 8.04622C5.03874 8.04622 5.4671 7.71381 5.56648 7.22719C6.10108 4.6673 8.39367 2.80992 11.0187 2.80992C13.4381 2.80992 15.5662 4.35203 16.3132 6.65147C16.488 7.19292 17.0706 7.48764 17.6086 7.30944C18.15 7.13467 18.4448 6.5521 18.2666 6.01407C17.2419 2.86818 14.3291 0.753784 11.0187 0.753784C7.71172 0.753784 4.79543 2.91273 3.78107 5.99008H0.666016V8.04622H4.5624ZM12.888 10.245C13.9212 9.21189 13.9212 7.53683 12.888 6.50368C11.8549 5.47054 10.1798 5.47054 9.14666 6.50368C8.11351 7.53683 8.11351 9.21189 9.14666 10.245C10.1798 11.2782 11.8549 11.2782 12.888 10.245ZM17.067 9.99265H17.0773H21.3335V12.0488H17.6941C16.3645 14.4682 13.8149 16 11.0185 16C8.24273 16 5.68626 14.4922 4.34635 12.0659C4.07219 11.569 4.25382 10.9419 4.75072 10.6677C5.24762 10.3936 5.87474 10.5752 6.14889 11.0721C7.12556 12.8438 8.99322 13.9439 11.0185 13.9439C13.2289 13.9439 15.2302 12.6348 16.1177 10.6095C16.2857 10.2222 16.666 9.99265 17.0601 9.99265H17.067Z" fill="#667C97"/>
</svg>
