<svg width="23" height="30" viewBox="0 0 23 30" fill="none" xmlns="http://www.w3.org/2000/svg">
<path fill-rule="evenodd" clip-rule="evenodd" d="M9.37496 5.35721C5.5287 5.35721 2.41068 8.47523 2.41068 12.3215C2.41068 16.1678 5.5287 19.2858 9.37496 19.2858C13.2212 19.2858 16.3393 16.1678 16.3393 12.3215C16.3393 8.47523 13.2212 5.35721 9.37496 5.35721ZM0.267822 12.3215C0.267822 7.29176 4.34523 3.21436 9.37496 3.21436C14.4047 3.21436 18.4821 7.29176 18.4821 12.3215C18.4821 17.3512 14.4047 21.4286 9.37496 21.4286C4.34523 21.4286 0.267822 17.3512 0.267822 12.3215Z" fill="#667C97"/>
<path fill-rule="evenodd" clip-rule="evenodd" d="M9.3749 19.2856C9.96663 19.2856 10.4463 19.7653 10.4463 20.3571V28.9285C10.4463 29.5202 9.96663 29.9999 9.3749 29.9999C8.78316 29.9999 8.30347 29.5202 8.30347 28.9285V20.3571C8.30347 19.7653 8.78316 19.2856 9.3749 19.2856Z" fill="#667C97"/>
<path fill-rule="evenodd" clip-rule="evenodd" d="M4.01782 25.1786C4.01782 24.5869 4.49752 24.1072 5.08925 24.1072H13.6607C14.2524 24.1072 14.7321 24.5869 14.7321 25.1786C14.7321 25.7703 14.2524 26.25 13.6607 26.25H5.08925C4.49752 26.25 4.01782 25.7703 4.01782 25.1786Z" fill="#667C97"/>
<path fill-rule="evenodd" clip-rule="evenodd" d="M14.7322 1.07143C14.7322 0.479695 15.2119 0 15.8036 0H21.1607C21.7525 0 22.2322 0.479695 22.2322 1.07143V6.42857C22.2322 7.0203 21.7525 7.5 21.1607 7.5C20.569 7.5 20.0893 7.0203 20.0893 6.42857V2.14286H15.8036C15.2119 2.14286 14.7322 1.66316 14.7322 1.07143Z" fill="#667C97"/>
<path fill-rule="evenodd" clip-rule="evenodd" d="M21.9183 0.313814C22.3367 0.732233 22.3367 1.41062 21.9183 1.82904L16.079 7.66833C15.6606 8.08675 14.9822 8.08675 14.5638 7.66833C14.1454 7.24991 14.1454 6.57152 14.5638 6.1531L20.4031 0.313814C20.8215 -0.104605 21.4999 -0.104605 21.9183 0.313814Z" fill="#667C97"/>
</svg>
