<svg width="26" height="22" viewBox="0 0 26 22" fill="none" xmlns="http://www.w3.org/2000/svg">
<path d="M5.65156 20.3317H1.91992C1.41318 20.3317 1 19.9151 1 19.4015V9.48418C1 8.97063 1.41318 8.55664 1.91992 8.55664H5.65156C6.1609 8.55664 6.57148 8.97325 6.57148 9.48418V19.4015C6.57408 19.9151 6.1609 20.3317 5.65156 20.3317Z" stroke="#667C97" stroke-miterlimit="10"/>
<path d="M9.35034 8.99179C9.96882 8.85554 10.829 8.58304 11.7151 7.99612C12.9417 7.18387 13.6771 6.12795 14.1084 5.29735C14.4125 4.71044 14.5606 4.05539 14.5606 3.39511V2.4702C14.6412 1.6265 15.361 0.984562 16.1874 1.00028C16.9877 1.016 17.6686 1.65008 17.7465 2.4702C17.7751 3.30603 17.7595 4.26501 17.6556 5.31831C17.5438 6.42664 17.3567 7.41183 17.1489 8.25814H23.331C23.9001 8.25814 24.4562 8.52016 24.7655 9.00227C24.9058 9.22236 24.9915 9.46604 24.9993 9.71233C25.0279 10.5848 24.1184 11.515 22.8555 11.4678C23.8274 11.6015 24.5238 12.2906 24.5628 12.9561C24.6121 13.7945 23.6247 14.8059 22.2578 14.6461C23.2063 14.7483 23.9027 15.4531 23.9495 16.1684C24.0093 17.0645 23.0582 18.0602 21.7926 17.9239C22.7957 17.8453 23.6065 18.6183 23.6169 19.462C23.6221 19.8026 23.4947 20.138 23.2738 20.4131C22.9594 20.8009 22.4683 21 21.9719 21H13.9499C13.5705 21 13.2041 20.8716 12.9053 20.6332L12.3232 20.1668C12.0269 19.9284 11.6579 19.8 11.2785 19.8H9.41271L9.35034 8.99179Z" stroke="#667C97" stroke-miterlimit="10" stroke-linecap="round" stroke-linejoin="round"/>
</svg>
