<svg width="21" height="18" viewBox="0 0 21 18" fill="none" xmlns="http://www.w3.org/2000/svg">
<path d="M4.68244 16.4654H1.72826C1.3271 16.4654 1 16.1321 1 15.7213V7.78744C1 7.3766 1.3271 7.04541 1.72826 7.04541H4.68244C5.08566 7.04541 5.4107 7.3787 5.4107 7.78744V15.7213C5.41276 16.1321 5.08566 16.4654 4.68244 16.4654Z" stroke="#667C97" stroke-miterlimit="10"/>
<path d="M7.61084 7.39343C8.10046 7.28443 8.7814 7.06643 9.48292 6.5969C10.4539 5.9471 11.0361 5.10236 11.3776 4.43788C11.6183 3.96835 11.7356 3.44432 11.7356 2.91609V2.17616C11.7994 1.5012 12.3692 0.987649 13.0234 1.00023C13.657 1.0128 14.196 1.52007 14.2578 2.17616C14.2804 2.84482 14.268 3.61201 14.1858 4.45465C14.0973 5.34132 13.9492 6.12946 13.7846 6.80651H18.6787C19.1293 6.80651 19.5695 7.01612 19.8143 7.40181C19.9254 7.57789 19.9933 7.77283 19.9995 7.96986C20.0221 8.66788 19.3021 9.412 18.3023 9.37427C19.0717 9.48118 19.623 10.0325 19.6539 10.5649C19.693 11.2356 18.9112 12.0447 17.8291 11.9169C18.58 11.9986 19.1313 12.5625 19.1684 13.1347C19.2157 13.8516 18.4627 14.6481 17.4609 14.5391C18.255 14.4763 18.8968 15.0946 18.905 15.7696C18.9092 16.0421 18.8083 16.3104 18.6335 16.5305C18.3846 16.8407 17.9957 17 17.6028 17H11.2521C10.9518 17 10.6617 16.8973 10.4251 16.7065L9.96431 16.3334C9.72979 16.1427 9.43766 16.04 9.1373 16.04H7.66021L7.61084 7.39343Z" stroke="#667C97" stroke-miterlimit="10" stroke-linecap="round" stroke-linejoin="round"/>
</svg>
