<svg width="15" height="16" viewBox="0 0 15 16" fill="none" xmlns="http://www.w3.org/2000/svg">
<path fill-rule="evenodd" clip-rule="evenodd" d="M14.425 2.61988C14.425 4.06681 13.252 5.23977 11.8051 5.23977C11.0406 5.23977 10.3526 4.91232 9.87365 4.39004L5.09197 7.13034C5.1877 7.40246 5.23977 7.69516 5.23977 8.00001C5.23977 8.34401 5.17347 8.67252 5.05296 8.97346L9.79992 11.6939C10.2805 11.123 11.0004 10.7602 11.8051 10.7602C13.252 10.7602 14.425 11.9332 14.425 13.3801C14.425 14.827 13.252 16 11.8051 16C10.3582 16 9.1852 14.827 9.1852 13.3801C9.1852 13.1181 9.22367 12.8651 9.29525 12.6263L4.46611 9.85884C3.99251 10.3292 3.34014 10.6199 2.61988 10.6199C1.17296 10.6199 0 9.44693 0 8.00001C0 6.55309 1.17296 5.38013 2.61988 5.38013C3.38073 5.38013 4.06583 5.70446 4.54446 6.22241L9.32969 3.48008C9.23607 3.21064 9.1852 2.9212 9.1852 2.61988C9.1852 1.17296 10.3582 0 11.8051 0C13.252 0 14.425 1.17296 14.425 2.61988Z" fill="white"/>
</svg>
