<svg width="25" height="26" viewBox="0 0 25 26" fill="none" xmlns="http://www.w3.org/2000/svg">
<path fill-rule="evenodd" clip-rule="evenodd" d="M1.73461 8.96543C1.91115 8.30654 2.34221 7.74478 2.93295 7.40372L8.87263 3.97444C9.06954 3.86075 9.30355 3.82995 9.52318 3.8888L16.5499 5.7716C16.7695 5.83045 16.9568 5.97413 17.0705 6.17105L22.2144 15.0806C22.5554 15.6713 22.6479 16.3733 22.4713 17.0322C22.2948 17.6911 21.8637 18.2529 21.273 18.5939L12.3635 23.7378C11.7727 24.0789 11.0707 24.1713 10.4118 23.9948C9.75293 23.8182 9.19116 23.3872 8.8501 22.7964L1.99155 10.9171C1.65048 10.3263 1.55806 9.62431 1.73461 8.96543ZM3.79027 8.88864C3.59335 9.00233 3.44967 9.18958 3.39082 9.40921C3.33197 9.62884 3.36278 9.86285 3.47647 10.0598L10.335 21.9391C10.4487 22.136 10.636 22.2797 10.8556 22.3386C11.0752 22.3974 11.3092 22.3666 11.5061 22.2529L20.4157 17.109C20.6126 16.9953 20.7563 16.8081 20.8151 16.5884C20.874 16.3688 20.8431 16.1348 20.7295 15.9379L15.7631 7.3359L9.42241 5.63692L3.79027 8.88864Z" fill="#1A3657"/>
<path d="M11.2454 6.99731V22.4291H23.2478V11.2839L18.9612 6.99731H11.2454Z" fill="white"/>
<path fill-rule="evenodd" clip-rule="evenodd" d="M10.2843 6.03602C10.7667 5.55369 11.4208 5.28271 12.103 5.28271H18.9615C19.1889 5.28271 19.407 5.37304 19.5677 5.53382L24.7117 10.6777C24.8724 10.8385 24.9628 11.0566 24.9628 11.2839V21.5718C24.9628 22.2539 24.6918 22.9081 24.2094 23.3904C23.7271 23.8728 23.0729 24.1437 22.3908 24.1437H12.103C11.4208 24.1437 10.7667 23.8728 10.2843 23.3904C9.80198 22.9081 9.53101 22.2539 9.53101 21.5718V7.85467C9.53101 7.17255 9.80198 6.51836 10.2843 6.03602ZM12.103 6.99735C11.8756 6.99735 11.6575 7.08768 11.4967 7.24846C11.336 7.40923 11.2456 7.6273 11.2456 7.85467V21.5718C11.2456 21.7992 11.336 22.0172 11.4967 22.178C11.6575 22.3388 11.8756 22.4291 12.103 22.4291H22.3908C22.6182 22.4291 22.8362 22.3388 22.997 22.178C23.1578 22.0172 23.2481 21.7992 23.2481 21.5718V11.6391L18.6064 6.99735H12.103Z" fill="#1A3657"/>
<path d="M12.96 20H21.5332" stroke="#1A3657" stroke-width="1.5" stroke-linecap="round"/>
<path d="M12.96 17H21.5332" stroke="#1A3657" stroke-width="1.5" stroke-linecap="round"/>
<path d="M12.96 14H21.5332" stroke="#1A3657" stroke-width="1.5" stroke-linecap="round"/>
<path d="M12.96 11H18.1039" stroke="#1A3657" stroke-width="1.5" stroke-linecap="round"/>
</svg>
