<svg width="24" height="24" viewBox="0 0 24 24" fill="none" xmlns="http://www.w3.org/2000/svg">
<path d="M13.2832 21.4505H1.46044C1.10087 21.4505 0.808494 21.1563 0.808494 20.7944V3.81269C0.808494 3.45085 1.10087 3.15663 1.46044 3.15663H4.07322V4.13718C4.07322 4.89215 4.68354 5.50581 5.43327 5.50581C6.18351 5.50581 6.79383 4.89215 6.79383 4.13718V3.15663H10.4808V2.34918H6.79383V1.36863C6.79383 1.35652 6.79383 1.34491 6.79282 1.33331C6.77477 0.594487 6.17147 0 5.43327 0C4.69558 0 4.09228 0.594487 4.07422 1.33331C4.07322 1.34491 4.07322 1.35652 4.07322 1.36863V2.34918H1.46044C0.658547 2.34918 0.00610352 3.00574 0.00610352 3.81269V20.7944C0.00610352 21.6014 0.658547 22.2579 1.46044 22.2579H13.2832C13.5043 22.2579 13.6844 22.0773 13.6844 21.8542C13.6844 21.6311 13.5043 21.4505 13.2832 21.4505ZM4.87561 1.36863C4.87561 1.35652 4.87611 1.34491 4.87661 1.33331C4.89517 1.0401 5.13789 0.807452 5.43327 0.807452C5.72915 0.807452 5.97188 1.0401 5.99043 1.33331C5.99093 1.34491 5.99144 1.35652 5.99144 1.36863V4.13718C5.99144 4.44654 5.74119 4.69836 5.43327 4.69836C5.12586 4.69836 4.87561 4.44654 4.87561 4.13718V1.36863Z" fill="#667C97"/>
<path d="M5.24235 9.60376H3.5458C3.04731 9.60376 2.6416 10.012 2.6416 10.5142V11.6456C2.6416 12.1477 3.04731 12.556 3.5458 12.556H5.24235C5.74084 12.556 6.14654 12.1477 6.14654 11.6456V10.5142C6.14654 10.012 5.74084 9.60376 5.24235 9.60376ZM5.34415 11.6456C5.34415 11.7026 5.29852 11.7486 5.24235 11.7486H3.5458C3.48963 11.7486 3.44399 11.7026 3.44399 11.6456V10.5142C3.44399 10.4571 3.48963 10.4112 3.5458 10.4112H5.24235C5.29852 10.4112 5.34415 10.4571 5.34415 10.5142V11.6456Z" fill="#667C97"/>
<path d="M10.2069 9.60376H8.5104C8.01191 9.60376 7.6062 10.012 7.6062 10.5142V11.6456C7.6062 12.1477 8.01191 12.556 8.5104 12.556H10.2069C10.7054 12.556 11.1111 12.1477 11.1111 11.6456V10.5142C11.1111 10.012 10.7054 9.60376 10.2069 9.60376ZM10.3088 11.6456C10.3088 11.7026 10.2631 11.7486 10.2069 11.7486H8.5104C8.45423 11.7486 8.40859 11.7026 8.40859 11.6456V10.5142C8.40859 10.4571 8.45423 10.4112 8.5104 10.4112H10.2069C10.2631 10.4112 10.3088 10.4571 10.3088 10.5142V11.6456Z" fill="#667C97"/>
<path d="M15.1718 9.60376H13.4752C12.9768 9.60376 12.571 10.012 12.571 10.5142V11.6456C12.571 12.1477 12.9768 12.556 13.4752 12.556H15.1718C15.6703 12.556 16.076 12.1477 16.076 11.6456V10.5142C16.076 10.012 15.6703 9.60376 15.1718 9.60376ZM15.2736 11.6456C15.2736 11.7026 15.228 11.7486 15.1718 11.7486H13.4752C13.4191 11.7486 13.3734 11.7026 13.3734 11.6456V10.5142C13.3734 10.4571 13.4191 10.4112 13.4752 10.4112H15.1718C15.228 10.4112 15.2736 10.4571 15.2736 10.5142V11.6456Z" fill="#667C97"/>
<path d="M20.1366 9.60376H18.4401C17.9416 9.60376 17.5359 10.012 17.5359 10.5142V11.6456C17.5359 12.1477 17.9416 12.556 18.4401 12.556H20.1366C20.6351 12.556 21.0408 12.1477 21.0408 11.6456V10.5142C21.0408 10.012 20.6351 9.60376 20.1366 9.60376ZM20.2384 11.6456C20.2384 11.7026 20.1928 11.7486 20.1366 11.7486H18.4401C18.3839 11.7486 18.3383 11.7026 18.3383 11.6456V10.5142C18.3383 10.4571 18.3839 10.4112 18.4401 10.4112H20.1366C20.1928 10.4112 20.2384 10.4571 20.2384 10.5142V11.6456Z" fill="#667C97"/>
<path d="M5.24235 13.2217H3.5458C3.04731 13.2217 2.6416 13.6299 2.6416 14.1316V15.2635C2.6416 15.7652 3.04731 16.1739 3.5458 16.1739H5.24235C5.74084 16.1739 6.14654 15.7652 6.14654 15.2635V14.1316C6.14654 13.6299 5.74084 13.2217 5.24235 13.2217ZM5.34415 15.2635C5.34415 15.32 5.29852 15.3665 5.24235 15.3665H3.5458C3.48963 15.3665 3.44399 15.32 3.44399 15.2635V14.1316C3.44399 14.0751 3.48963 14.0291 3.5458 14.0291H5.24235C5.29852 14.0291 5.34415 14.0751 5.34415 14.1316V15.2635Z" fill="#667C97"/>
<path d="M10.2069 13.2217H8.5104C8.01191 13.2217 7.6062 13.6299 7.6062 14.1316V15.2635C7.6062 15.7652 8.01191 16.1739 8.5104 16.1739H10.2069C10.7054 16.1739 11.1111 15.7652 11.1111 15.2635V14.1316C11.1111 13.6299 10.7054 13.2217 10.2069 13.2217ZM10.3088 15.2635C10.3088 15.32 10.2631 15.3665 10.2069 15.3665H8.5104C8.45423 15.3665 8.40859 15.32 8.40859 15.2635V14.1316C8.40859 14.0751 8.45423 14.0291 8.5104 14.0291H10.2069C10.2631 14.0291 10.3088 14.0751 10.3088 14.1316V15.2635Z" fill="#667C97"/>
<path d="M16.076 14.1316V14.1957C15.7896 14.3678 15.5213 14.5666 15.2736 14.7891V14.1316C15.2736 14.0751 15.228 14.0291 15.1718 14.0291H13.4752C13.4191 14.0291 13.3734 14.0751 13.3734 14.1316V15.2635C13.3734 15.32 13.4191 15.3665 13.4752 15.3665H14.7199C14.5138 15.6173 14.3298 15.8873 14.1723 16.1739H13.4752C12.9768 16.1739 12.571 15.7652 12.571 15.2635V14.1316C12.571 13.6299 12.9768 13.2217 13.4752 13.2217H15.1718C15.6703 13.2217 16.076 13.6299 16.076 14.1316Z" fill="#667C97"/>
<path d="M5.24235 16.8389H3.5458C3.04731 16.8389 2.6416 17.2471 2.6416 17.7493V18.8807C2.6416 19.3828 3.04731 19.7911 3.5458 19.7911H5.24235C5.74084 19.7911 6.14654 19.3828 6.14654 18.8807V17.7493C6.14654 17.2471 5.74084 16.8389 5.24235 16.8389ZM5.34415 18.8807C5.34415 18.9377 5.29852 18.9837 5.24235 18.9837H3.5458C3.48963 18.9837 3.44399 18.9377 3.44399 18.8807V17.7493C3.44399 17.6922 3.48963 17.6463 3.5458 17.6463H5.24235C5.29852 17.6463 5.34415 17.6922 5.34415 17.7493V18.8807Z" fill="#667C97"/>
<path d="M10.2069 16.8389H8.5104C8.01191 16.8389 7.6062 17.2471 7.6062 17.7493V18.8807C7.6062 19.3828 8.01191 19.7911 8.5104 19.7911H10.2069C10.7054 19.7911 11.1111 19.3828 11.1111 18.8807V17.7493C11.1111 17.2471 10.7054 16.8389 10.2069 16.8389ZM10.3088 18.8807C10.3088 18.9377 10.2631 18.9837 10.2069 18.9837H8.5104C8.45423 18.9837 8.40859 18.9377 8.40859 18.8807V17.7493C8.40859 17.6922 8.45423 17.6463 8.5104 17.6463H10.2069C10.2631 17.6463 10.3088 17.6922 10.3088 17.7493V18.8807Z" fill="#667C97"/>
<path d="M21.0262 13.9702C20.3397 13.6372 19.5704 13.4504 18.7585 13.4504C18.4119 13.4504 18.0729 13.4843 17.7449 13.5499C17.1462 13.6679 16.5835 13.8895 16.076 14.1953C15.7896 14.3674 15.5213 14.5662 15.2736 14.7888C15.075 14.9669 14.8899 15.1597 14.7199 15.3661C14.5138 15.6169 14.3298 15.8869 14.1723 16.1736C14.0544 16.3865 13.9511 16.6086 13.8634 16.8387C13.7641 17.0986 13.6848 17.3686 13.6272 17.6462C13.555 17.9949 13.5168 18.3557 13.5168 18.7251C13.5168 18.8119 13.5189 18.8977 13.5234 18.9835C13.5364 19.2585 13.5705 19.528 13.6247 19.791C14.1156 22.1901 16.2309 23.9998 18.7585 23.9998C21.6486 23.9998 24.0001 21.6335 24.0001 18.7251C24.0001 16.6338 22.784 14.8226 21.0262 13.9702ZM18.7585 23.1923C16.6758 23.1923 14.923 21.7415 14.4471 19.791C14.3834 19.53 14.3423 19.2601 14.3273 18.9835C14.3217 18.8982 14.3192 18.8119 14.3192 18.7251C14.3192 18.3532 14.3649 17.9919 14.4501 17.6462C14.5193 17.3656 14.6156 17.0956 14.735 16.8387C14.8433 16.6056 14.9712 16.383 15.1171 16.1736C15.3824 15.79 15.7069 15.4504 16.076 15.1683C16.5078 14.8377 17.0012 14.5844 17.5358 14.43C17.7946 14.3553 18.0629 14.3038 18.3382 14.2781C18.4766 14.2645 18.6165 14.2579 18.7585 14.2579C19.277 14.2579 19.7755 14.3477 20.2384 14.5138C20.5202 14.6137 20.7885 14.7419 21.0408 14.8953C22.3321 15.6765 23.1977 17.1011 23.1977 18.7251C23.1977 21.1884 21.2063 23.1923 18.7585 23.1923Z" fill="#667C97"/>
<path d="M21.5432 17.4397L17.9119 21.094L16.0213 19.1914L15.8417 19.0107C15.6852 18.8528 15.6852 18.5974 15.8417 18.4395C15.9074 18.3733 15.9902 18.335 16.0759 18.3249C16.1943 18.3098 16.3181 18.3481 16.4094 18.4395L17.9119 19.9519L20.1887 17.6608L20.7579 17.0885L20.976 16.869C21.1325 16.711 21.3867 16.711 21.5432 16.869C21.7002 17.0264 21.7002 17.2823 21.5432 17.4397Z" fill="#667C97"/>
<path d="M22.8743 3.81255V6.89752H0.808594V3.81255C0.808594 3.45071 1.10096 3.15649 1.46054 3.15649H4.07332V4.13704C4.07332 4.89201 4.68364 5.50568 5.43337 5.50568C6.18361 5.50568 6.79393 4.89201 6.79393 4.13704V3.15649H10.4809V4.13704C10.4809 4.89201 11.0912 5.50568 11.8415 5.50568C12.5912 5.50568 13.2015 4.89201 13.2015 4.13704V3.15649H16.8885V4.13704C16.8885 4.89201 17.4988 5.50568 18.2491 5.50568C18.9988 5.50568 19.6091 4.89201 19.6091 4.13704V3.15649H22.2224C22.5815 3.15649 22.8743 3.45071 22.8743 3.81255Z" fill="#667C97"/>
<path d="M22.2224 2.34918H19.6092V1.36863C19.6092 1.35652 19.6092 1.34491 19.6081 1.33331C19.5901 0.594487 18.9868 0 18.2491 0C17.5109 0 16.9076 0.594487 16.8896 1.33331C16.8885 1.34491 16.8885 1.35652 16.8885 1.36863V2.34918H13.2016V1.36863C13.2016 1.35652 13.2016 1.34491 13.2006 1.33331C13.1825 0.594487 12.5792 0 11.841 0C11.1033 0 10.5 0.594487 10.482 1.33331C10.481 1.34491 10.481 1.35652 10.481 1.36863V4.13718C10.481 4.89215 11.0913 5.50581 11.8415 5.50581C12.5912 5.50581 13.2016 4.89215 13.2016 4.13718V3.15663H16.8885V4.13718C16.8885 4.89215 17.4989 5.50581 18.2491 5.50581C18.9988 5.50581 19.6092 4.89215 19.6092 4.13718V3.15663H22.2224C22.5815 3.15663 22.8744 3.45085 22.8744 3.81269V14.5997C22.8744 14.8228 23.0539 15.0035 23.2756 15.0035C23.4967 15.0035 23.6768 14.8228 23.6768 14.5997V3.81269C23.6768 3.00574 23.0243 2.34918 22.2224 2.34918ZM12.3992 4.13718C12.3992 4.44654 12.1489 4.69836 11.8415 4.69836H11.841C11.5336 4.69836 11.2833 4.44654 11.2833 4.13718V1.36863C11.2833 1.35652 11.2838 1.34491 11.2844 1.33331C11.3029 1.0401 11.5456 0.807452 11.8415 0.807452C12.1369 0.807452 12.3796 1.0401 12.3982 1.33331C12.3987 1.34491 12.3992 1.35652 12.3992 1.36863V4.13718ZM18.8068 4.13718C18.8068 4.44654 18.5565 4.69836 18.2491 4.69836C17.9412 4.69836 17.6909 4.44654 17.6909 4.13718V1.36863C17.6909 1.35652 17.6914 1.34491 17.6919 1.33331C17.7105 1.0401 17.9532 0.807452 18.2491 0.807452C18.5445 0.807452 18.7872 1.0401 18.8058 1.33331C18.8063 1.34491 18.8068 1.35652 18.8068 1.36863V4.13718Z" fill="#667C97"/>
</svg>
