<svg width="27" height="24" viewBox="0 0 27 24" fill="none" xmlns="http://www.w3.org/2000/svg">
<path fill-rule="evenodd" clip-rule="evenodd" d="M12.0154 0.443368C12.5316 0.152701 13.1141 0 13.7066 0C14.2991 0 14.8815 0.152701 15.3978 0.443368C15.9141 0.734035 16.3467 1.15286 16.654 1.65942L16.6573 1.66488L26.3901 17.9131L26.3995 17.9289C26.7005 18.4502 26.8597 19.0412 26.8614 19.6431C26.8631 20.2451 26.7072 20.8369 26.4091 21.3599C26.111 21.8828 25.6812 22.3186 25.1624 22.6239C24.6436 22.9291 24.0539 23.0932 23.452 23.0999L23.4394 23.1L3.96115 23.0999C3.35925 23.0933 2.76958 22.9291 2.2508 22.6239C1.73201 22.3186 1.3022 21.8828 1.00412 21.3599C0.70604 20.8369 0.550086 20.2451 0.551771 19.6431C0.553457 19.0412 0.712724 18.4502 1.01373 17.9289L1.02306 17.9131L10.7559 1.66489L11.7416 2.25536L10.7592 1.65942C11.0664 1.15286 11.4991 0.734035 12.0154 0.443368ZM12.7255 2.84904L3.00014 19.0848C2.90226 19.2569 2.8505 19.4515 2.84995 19.6496C2.84939 19.8502 2.90137 20.0475 3.00073 20.2218C3.10009 20.3961 3.24336 20.5414 3.41629 20.6432C3.5877 20.744 3.78233 20.7986 3.98113 20.8017H23.4321C23.6309 20.7986 23.8255 20.744 23.9969 20.6432C24.1698 20.5414 24.3131 20.3961 24.4125 20.2218C24.5118 20.0475 24.5638 19.8502 24.5632 19.6496C24.5627 19.4515 24.5109 19.257 24.4131 19.0849L14.6891 2.85133C14.6886 2.85056 14.6881 2.8498 14.6877 2.84904C14.5853 2.68121 14.4417 2.54243 14.2703 2.44598C14.0982 2.34909 13.9041 2.29819 13.7066 2.29819C13.5091 2.29819 13.3149 2.34909 13.1429 2.44598C12.9715 2.54243 12.8279 2.68121 12.7255 2.84904Z" fill="#1A3657"/>
<path fill-rule="evenodd" clip-rule="evenodd" d="M12.5574 17.3543C12.5574 16.7197 13.0718 16.2052 13.7065 16.2052H13.718C14.3526 16.2052 14.8671 16.7197 14.8671 17.3543C14.8671 17.9889 14.3526 18.5034 13.718 18.5034H13.7065C13.0718 18.5034 12.5574 17.9889 12.5574 17.3543Z" fill="#1A3657"/>
<path fill-rule="evenodd" clip-rule="evenodd" d="M13.7065 7.01257C14.3411 7.01257 14.8556 7.52704 14.8556 8.16167V12.758C14.8556 13.3927 14.3411 13.9071 13.7065 13.9071C13.0718 13.9071 12.5574 13.3927 12.5574 12.758V8.16167C12.5574 7.52704 13.0718 7.01257 13.7065 7.01257Z" fill="#1A3657"/>
</svg>
