<svg width="24" height="22" viewBox="0 0 24 22" fill="none" xmlns="http://www.w3.org/2000/svg">
<path fill-rule="evenodd" clip-rule="evenodd" d="M12.0001 2C6.86653 2 2.70498 6.02944 2.70498 11C2.70498 15.9706 6.86653 20 12.0001 20C17.1336 20 21.2951 15.9706 21.2951 11C21.2951 6.02944 17.1336 2 12.0001 2ZM0.639404 11C0.639404 4.92487 5.72574 0 12.0001 0C18.2744 0 23.3607 4.92487 23.3607 11C23.3607 17.0751 18.2744 22 12.0001 22C5.72574 22 0.639404 17.0751 0.639404 11Z" fill="white"/>
<path fill-rule="evenodd" clip-rule="evenodd" d="M9.44719 6.11833C9.78301 5.94431 10.1905 5.96338 10.5074 6.16795L16.7041 10.1679C16.9914 10.3534 17.164 10.6656 17.164 11C17.164 11.3344 16.9914 11.6466 16.7041 11.832L10.5074 15.832C10.1905 16.0366 9.78301 16.0557 9.44719 15.8817C9.11137 15.7077 8.90173 15.3688 8.90173 15V7C8.90173 6.63121 9.11137 6.29235 9.44719 6.11833ZM10.9673 8.86852V13.1315L14.2694 11L10.9673 8.86852Z" fill="white"/>
</svg>
