<svg width="29" height="26" viewBox="0 0 29 26" fill="none" xmlns="http://www.w3.org/2000/svg">
<path d="M8.25928 20.3333C8.25928 15.1787 12.4379 11 17.5926 11C22.7473 11 26.9259 15.1787 26.9259 20.3333V21H8.25928V20.3333Z" fill="#667C97"/>
<ellipse cx="17.5926" cy="5" rx="5.18518" ry="5" fill="#667C97"/>
<path d="M19.6666 22.5H20.1666V22V21.3333C20.1666 15.9025 15.7641 11.5 10.3333 11.5C4.90253 11.5 0.5 15.9025 0.5 21.3333V22V22.5H1H19.6666Z" fill="#667C97" stroke="white"/>
<path d="M10.3334 11.5C13.4559 11.5 16.0186 9.05455 16.0186 6C16.0186 2.94545 13.4559 0.5 10.3334 0.5C7.21083 0.5 4.64819 2.94545 4.64819 6C4.64819 9.05455 7.21083 11.5 10.3334 11.5Z" fill="#667C97" stroke="white"/>
<path d="M28.4999 19C28.4999 22.5729 25.491 25.5 21.7407 25.5C17.9904 25.5 14.9814 22.5729 14.9814 19C14.9814 15.4271 17.9904 12.5 21.7407 12.5C25.491 12.5 28.4999 15.4271 28.4999 19Z" fill="white" stroke="#667C97"/>
<rect x="20.7036" y="15" width="2.07407" height="8" rx="1.03704" fill="#667C97"/>
<rect x="25.8889" y="18" width="2" height="8.29629" rx="1" transform="rotate(90 25.8889 18)" fill="#667C97"/>
</svg>
