<svg width="18" height="18" viewBox="0 0 18 18" fill="none" xmlns="http://www.w3.org/2000/svg">
<path fill-rule="evenodd" clip-rule="evenodd" d="M9 1.38462C4.79414 1.38462 1.38462 4.79414 1.38462 9C1.38462 13.2059 4.79414 16.6154 9 16.6154C13.2059 16.6154 16.6154 13.2059 16.6154 9C16.6154 4.79414 13.2059 1.38462 9 1.38462ZM0 9C0 4.02944 4.02944 0 9 0C13.9706 0 18 4.02944 18 9C18 13.9706 13.9706 18 9 18C4.02944 18 0 13.9706 0 9Z" fill="#667C97"/>
<path d="M5.88465 8.30764C6.45818 8.30764 6.92311 7.8427 6.92311 7.26917C6.92311 6.69565 6.45818 6.23071 5.88465 6.23071C5.31113 6.23071 4.84619 6.69565 4.84619 7.26917C4.84619 7.8427 5.31113 8.30764 5.88465 8.30764Z" fill="#667C97"/>
<path d="M12.1156 8.30764C12.6891 8.30764 13.1541 7.8427 13.1541 7.26917C13.1541 6.69565 12.6891 6.23071 12.1156 6.23071C11.5421 6.23071 11.0771 6.69565 11.0771 7.26917C11.0771 7.8427 11.5421 8.30764 12.1156 8.30764Z" fill="#667C97"/>
<path fill-rule="evenodd" clip-rule="evenodd" d="M5.0524 10.4782C5.38308 10.2862 5.80675 10.3987 5.99869 10.7294C6.3038 11.2551 6.74162 11.6913 7.26833 11.9946C7.79503 12.2979 8.39216 12.4575 8.99994 12.4575C9.60772 12.4575 10.2048 12.2979 10.7316 11.9946C11.2583 11.6913 11.6961 11.2551 12.0012 10.7294C12.1931 10.3987 12.6168 10.2862 12.9475 10.4782C13.2782 10.6701 13.3906 11.0938 13.1987 11.4245C12.7718 12.1599 12.1593 12.7703 11.4225 13.1945C10.6856 13.6188 9.85023 13.8422 8.99994 13.8422C8.14965 13.8422 7.31427 13.6188 6.57741 13.1945C5.84054 12.7703 5.22804 12.1599 4.80119 11.4245C4.60925 11.0938 4.72172 10.6701 5.0524 10.4782Z" fill="#667C97"/>
</svg>
