<svg width="32" height="23" viewBox="0 0 32 23" fill="none" xmlns="http://www.w3.org/2000/svg">
<path fill-rule="evenodd" clip-rule="evenodd" d="M16.5 5C17.3284 5 18 5.67157 18 6.5V21.5C18 22.3284 17.3284 23 16.5 23H1.5C0.671572 23 0 22.3284 0 21.5V6.5C0 5.67157 0.671572 5 1.5 5L16.5 5ZM16.5 21.5V6.5L1.5 6.5V21.5H16.5Z" fill="white"/>
<path fill-rule="evenodd" clip-rule="evenodd" d="M21.2197 9.21967C21.5126 8.92678 21.9874 8.92678 22.2803 9.21967L26.25 13.1893L30.2197 9.21967C30.5126 8.92678 30.9874 8.92678 31.2803 9.21967C31.5732 9.51256 31.5732 9.98744 31.2803 10.2803L26.7803 14.7803C26.4874 15.0732 26.0126 15.0732 25.7197 14.7803L21.2197 10.2803C20.9268 9.98744 20.9268 9.51256 21.2197 9.21967Z" fill="white"/>
<path fill-rule="evenodd" clip-rule="evenodd" d="M12 0.75C12 0.335787 12.3358 -1.46777e-08 12.75 -3.27835e-08L26.25 -6.22887e-07C26.6642 -6.40993e-07 27 0.335786 27 0.749999L27 14.25C27 14.6642 26.6642 15 26.25 15C25.8358 15 25.5 14.6642 25.5 14.25L25.5 1.5L12.75 1.5C12.3358 1.5 12 1.16421 12 0.75Z" fill="white"/>
</svg>
