<svg width="27" height="25" viewBox="0 0 27 25" fill="none" xmlns="http://www.w3.org/2000/svg">
<path d="M7.70068 19.7693C7.70068 15.0112 11.5579 11.1539 16.3161 11.1539C21.0742 11.1539 24.9314 15.0112 24.9314 19.7693V20.3847H7.70068V19.7693Z" fill="#667C97"/>
<ellipse cx="16.3161" cy="5.61538" rx="4.78632" ry="4.61538" fill="#667C97"/>
<path d="M18.2308 21.8077H18.7308V21.3077V20.6923C18.7308 15.658 14.6497 11.5769 9.61538 11.5769C4.58109 11.5769 0.5 15.658 0.5 20.6923V21.3077V21.8077H1H18.2308Z" fill="#667C97" stroke="white"/>
<path d="M9.61542 11.6539C12.5177 11.6539 14.9017 9.38061 14.9017 6.53848C14.9017 3.69635 12.5177 1.4231 9.61542 1.4231C6.71316 1.4231 4.3291 3.69635 4.3291 6.53848C4.3291 9.38061 6.71316 11.6539 9.61542 11.6539Z" fill="#667C97" stroke="white"/>
<path d="M26.346 18.5384C26.346 21.8139 23.5871 24.5 20.1452 24.5C16.7033 24.5 13.9443 21.8139 13.9443 18.5384C13.9443 15.263 16.7033 12.5769 20.1452 12.5769C23.5871 12.5769 26.346 15.263 26.346 18.5384Z" fill="white" stroke="#667C97"/>
<rect x="19.188" y="14.8461" width="1.91453" height="7.38462" rx="0.957264" fill="#667C97"/>
<rect x="23.9741" y="17.6154" width="1.84615" height="7.65811" rx="0.923077" transform="rotate(90 23.9741 17.6154)" fill="#667C97"/>
</svg>
