<svg width="49" height="38" viewBox="0 0 49 38" fill="none" xmlns="http://www.w3.org/2000/svg">
<path d="M30.4844 17.5341C31.6281 18.2789 32.8773 18.9358 33.9388 19.8155C37.745 22.9531 39.6452 27.0409 39.6041 31.9731C39.5924 33.3396 38.701 34.2839 37.6453 35.0287C35.5809 36.4831 33.1881 37.0579 30.7601 37.4977C27.7691 38.0373 24.7487 38.0959 21.7342 37.8907C18.62 37.6854 15.5528 37.181 12.7084 35.7676C12.2568 35.5448 11.8228 35.275 11.4122 34.9818C9.97538 33.9613 9.35958 32.63 9.5062 30.8119C9.77012 27.557 10.8551 24.6598 12.8726 22.1145C14.286 20.3257 16.0161 18.9182 18.0922 17.9446C18.3033 17.8449 18.5086 17.7452 18.7373 17.6338C13.6233 13.4464 13.9224 6.46145 17.7755 2.77252C21.7635 -1.04543 27.8394 -0.91641 31.6632 3.13614C35.229 6.93063 35.3932 13.5168 30.4844 17.5341Z" fill="#00ACEE"/>
<path d="M7.10742 17.8332C3.60616 14.8304 3.72932 10.5726 5.69401 7.87482C7.65871 5.17703 11.4943 4.16243 14.3387 5.64034C13.5762 7.59917 13.4003 9.64011 13.7698 11.7221C14.1334 13.7865 15.06 15.587 16.4852 17.2232C13.7639 18.8184 11.635 20.9415 10.163 23.6803C8.71436 26.3898 8.06337 29.2929 8.20999 32.4012C6.35673 32.1901 4.58557 31.8617 2.92585 31.1168C0.644458 30.0905 0.0638473 28.9 0.47438 26.4426C1.14296 22.4663 3.31292 19.663 6.95494 17.9739C7.00185 17.9505 7.03118 17.9094 7.10742 17.8332Z" fill="#FFAC33"/>
<path d="M34.7072 5.47625C37.4109 4.17428 41.0939 5.31204 43.0352 8.03329C44.7946 10.4906 45.1113 14.7778 41.5866 17.7864C42.566 18.4432 43.6392 19.0238 44.5424 19.798C47.0584 21.9445 48.1844 24.7772 48.2841 28.038C48.3193 29.1288 47.6918 29.903 46.8297 30.4836C45.4632 31.3985 43.9031 31.809 42.3138 32.1198C41.8739 32.2078 41.4224 32.2606 40.959 32.331C40.9766 25.7331 38.2788 20.6894 32.6487 17.1999C34.0738 15.593 35.0004 13.7397 35.3817 11.6284C35.7629 9.51121 35.5048 7.45854 34.7072 5.47625Z" fill="#FFAC33"/>
</svg>
