<svg width="26" height="24" viewBox="0 0 26 24" fill="none" xmlns="http://www.w3.org/2000/svg">
<path d="M7.53943 19.7118C7.53943 15.0677 11.3042 11.303 15.9482 11.303C20.5923 11.303 24.3571 15.0677 24.3571 19.7118V20.6695H7.53943V19.7118Z" fill="#1A3657"/>
<ellipse cx="15.9488" cy="5.68325" rx="4.67157" ry="4.68325" fill="#1A3657"/>
<path d="M17.8176 22.1064H18.3176V21.6064V20.6487C18.3176 15.7285 14.329 11.7399 9.40882 11.7399C4.48862 11.7399 0.5 15.7285 0.5 20.6487V21.6064V22.1064H1H17.8176Z" fill="#1A3657" stroke="white"/>
<path d="M9.40899 11.803C12.2663 11.803 14.5806 9.48122 14.5806 6.61977C14.5806 3.75832 12.2663 1.43652 9.40899 1.43652C6.55164 1.43652 4.23743 3.75832 4.23743 6.61977C4.23743 9.48122 6.55164 11.803 9.40899 11.803Z" fill="#1A3657" stroke="white"/>
<path d="M24.584 18.5883C24.584 21.3021 22.3898 23.5 19.6857 23.5C16.9817 23.5 14.7875 21.3021 14.7875 18.5883C14.7875 15.8744 16.9817 13.6765 19.6857 13.6765C22.3898 13.6765 24.584 15.8744 24.584 18.5883Z" fill="white" stroke="#1A3657"/>
<rect x="23.424" y="17.8597" width="1.8733" height="7.47451" rx="0.936649" transform="rotate(90 23.424 17.8597)" fill="#1A3657"/>
</svg>
