<svg width="32" height="32" viewBox="0 0 32 32" fill="none" xmlns="http://www.w3.org/2000/svg">
<path fill-rule="evenodd" clip-rule="evenodd" d="M16 2.90909C8.77009 2.90909 2.90909 8.77009 2.90909 16C2.90909 23.2299 8.77009 29.0909 16 29.0909C23.2299 29.0909 29.0909 23.2299 29.0909 16C29.0909 8.77009 23.2299 2.90909 16 2.90909ZM0 16C0 7.16344 7.16344 0 16 0C24.8366 0 32 7.16344 32 16C32 24.8366 24.8366 32 16 32C7.16344 32 0 24.8366 0 16Z" fill="#1A3657"/>
<path fill-rule="evenodd" clip-rule="evenodd" d="M21.1427 10.8573C21.7107 11.4253 21.7107 12.3463 21.1427 12.9143L12.9145 21.1424C12.3465 21.7105 11.4255 21.7105 10.8575 21.1424C10.2894 20.5744 10.2894 19.6534 10.8575 19.0854L19.0856 10.8573C19.6537 10.2892 20.5746 10.2892 21.1427 10.8573Z" fill="#1A3657"/>
<path fill-rule="evenodd" clip-rule="evenodd" d="M10.8577 10.8574C11.4257 10.2893 12.3467 10.2893 12.9147 10.8574L21.1429 19.0855C21.7109 19.6536 21.7109 20.5745 21.1429 21.1426C20.5749 21.7106 19.6539 21.7106 19.0859 21.1426L10.8577 12.9144C10.2897 12.3464 10.2897 11.4254 10.8577 10.8574Z" fill="#1A3657"/>
</svg>
