<svg width="24" height="24" viewBox="0 0 24 24" fill="none" xmlns="http://www.w3.org/2000/svg">
<path d="M12 0C10.4241 -1.8792e-08 8.86371 0.310389 7.4078 0.913446C5.95189 1.5165 4.62902 2.40042 3.51472 3.51472C2.40042 4.62902 1.5165 5.95189 0.913446 7.4078C0.310389 8.86371 -5.00912e-08 10.4241 0 12C5.00912e-08 13.5759 0.310389 15.1363 0.913446 16.5922C1.5165 18.0481 2.40042 19.371 3.51472 20.4853C4.62902 21.5996 5.95189 22.4835 7.4078 23.0866C8.86371 23.6896 10.4241 24 12 24V19.0173C11.0785 19.0173 10.166 18.8358 9.3146 18.4831C8.46322 18.1305 7.68964 17.6136 7.03802 16.962C6.38641 16.3104 5.86952 15.5368 5.51686 14.6854C5.16421 13.834 4.9827 12.9215 4.9827 12C4.9827 11.0785 5.16421 10.166 5.51686 9.3146C5.86952 8.46322 6.38641 7.68964 7.03802 7.03802C7.68964 6.38641 8.46322 5.86952 9.3146 5.51686C10.166 5.16421 11.0785 4.9827 12 4.9827V0Z" fill="#00ACEE"/>
<path d="M24 12C24 10.4241 23.6896 8.86371 23.0866 7.4078C22.4835 5.95189 21.5996 4.62902 20.4853 3.51472C19.371 2.40042 18.0481 1.5165 16.5922 0.913448C15.1363 0.31039 13.5759 9.96042e-07 12 8.58275e-07L12 4.98271C12.9215 4.98271 13.834 5.16421 14.6854 5.51687C15.5368 5.86952 16.3104 6.38641 16.962 7.03802C17.6136 7.68964 18.1305 8.46322 18.4831 9.3146C18.8358 10.166 19.0173 11.0785 19.0173 12L24 12Z" fill="#1877F2"/>
<path d="M-8.58275e-07 12C-9.96042e-07 13.5759 0.310387 15.1363 0.913445 16.5922C1.5165 18.0481 2.40041 19.371 3.51472 20.4853C4.62902 21.5996 5.95189 22.4835 7.4078 23.0866C8.8637 23.6896 10.4241 24 12 24L12 19.0173C11.0785 19.0173 10.166 18.8358 9.3146 18.4831C8.46322 18.1305 7.68964 17.6136 7.03802 16.962C6.38641 16.3104 5.86952 15.5368 5.51686 14.6854C5.16421 13.834 4.9827 12.9215 4.98271 12L-8.58275e-07 12Z" fill="#1877F2"/>
<path d="M12 24C13.5759 24 15.1363 23.6896 16.5922 23.0866C18.0481 22.4835 19.371 21.5996 20.4853 20.4853C21.5996 19.371 22.4835 18.0481 23.0866 16.5922C23.6896 15.1363 24 13.5759 24 12L19.0173 12C19.0173 12.9215 18.8358 13.834 18.4831 14.6854C18.1305 15.5368 17.6136 16.3104 16.962 16.962C16.3104 17.6136 15.5368 18.1305 14.6854 18.4831C13.834 18.8358 12.9215 19.0173 12 19.0173L12 24Z" fill="#00ACEE"/>
</svg>
