<svg width="16" height="16" viewBox="0 0 16 16" fill="none" xmlns="http://www.w3.org/2000/svg">
<circle cx="8" cy="8" r="8" fill="#00ACEE"/>
<path d="M4.84869 11.8313H3.09807C2.86034 11.8313 2.6665 11.6338 2.6665 11.3903V6.68875C2.6665 6.44528 2.86034 6.24902 3.09807 6.24902H4.84869C5.08764 6.24902 5.28025 6.44653 5.28025 6.68875V11.3903C5.28147 11.6338 5.08764 11.8313 4.84869 11.8313Z" fill="white"/>
<path d="M5.99146 6.45545C6.2816 6.39085 6.68512 6.26167 7.10084 5.98343C7.67625 5.59836 8.02126 5.09777 8.22363 4.70401C8.36626 4.42577 8.43575 4.11523 8.43575 3.80221V3.36373C8.47354 2.96376 8.81123 2.65943 9.19891 2.66688C9.57439 2.67433 9.89379 2.97494 9.93037 3.36373C9.94378 3.75998 9.93646 4.2146 9.8877 4.71395C9.83528 5.23938 9.7475 5.70643 9.64997 6.10764H12.5502C12.8172 6.10764 13.0781 6.23186 13.2232 6.46041C13.289 6.56476 13.3292 6.68028 13.3329 6.79704C13.3463 7.21067 12.9196 7.65164 12.3271 7.62928C12.7831 7.69263 13.1098 8.01932 13.1281 8.33482C13.1512 8.73231 12.688 9.21178 12.0467 9.13601C12.4917 9.18445 12.8184 9.51859 12.8404 9.8577C12.8684 10.2825 12.4222 10.7545 11.8285 10.6899C12.2991 10.6527 12.6794 11.0191 12.6843 11.4191C12.6868 11.5806 12.627 11.7396 12.5234 11.87C12.3759 12.0538 12.1455 12.1482 11.9126 12.1482H8.14926C7.97127 12.1482 7.79938 12.0874 7.65918 11.9743L7.38611 11.7532C7.24713 11.6402 7.07402 11.5793 6.89603 11.5793H6.02071L5.99146 6.45545Z" fill="white"/>
</svg>
