<svg width="18" height="18" viewBox="0 0 18 18" fill="none" xmlns="http://www.w3.org/2000/svg">
<path fill-rule="evenodd" clip-rule="evenodd" d="M1.8 8.09999C1.8 4.6206 4.6206 1.8 8.09999 1.8C11.5794 1.8 14.4 4.6206 14.4 8.09999C14.4 9.79784 13.7283 11.3388 12.6363 12.4717C12.6059 12.4952 12.5767 12.5208 12.5489 12.5486C12.521 12.5765 12.4954 12.6057 12.4719 12.6361C11.339 13.7283 9.79794 14.4 8.09999 14.4C4.6206 14.4 1.8 11.5794 1.8 8.09999ZM13.156 14.4286C11.7703 15.5371 10.0126 16.2 8.09999 16.2C3.62649 16.2 0 12.5735 0 8.09999C0 3.62649 3.62649 0 8.09999 0C12.5735 0 16.2 3.62649 16.2 8.09999C16.2 10.0124 15.5372 11.7701 14.4288 13.1558L17.7366 16.4636C18.0881 16.8151 18.0881 17.3849 17.7366 17.7364C17.3852 18.0879 16.8153 18.0879 16.4639 17.7364L13.156 14.4286Z" fill="#C8C8C8"/>
</svg>
