<svg width="17" height="19" viewBox="0 0 17 19" fill="none" xmlns="http://www.w3.org/2000/svg">
<path fill-rule="evenodd" clip-rule="evenodd" d="M16.4999 2.99676C16.4999 4.65182 15.1582 5.99351 13.5032 5.99351C12.6287 5.99351 11.8417 5.61897 11.2939 5.02154L5.82444 8.156C5.93395 8.46728 5.99351 8.80209 5.99351 9.15082C5.99351 9.54431 5.91767 9.92009 5.77981 10.2643L11.2096 13.376C11.7593 12.723 12.5828 12.3081 13.5032 12.3081C15.1582 12.3081 16.4999 13.6498 16.4999 15.3049C16.4999 16.9599 15.1582 18.3016 13.5032 18.3016C11.8481 18.3016 10.5064 16.9599 10.5064 15.3049C10.5064 15.0051 10.5504 14.7157 10.6323 14.4427L5.10853 11.2771C4.56681 11.8151 3.82061 12.1476 2.99676 12.1476C1.34169 12.1476 0 10.8059 0 9.15082C0 7.49575 1.34169 6.15406 2.99676 6.15406C3.86704 6.15406 4.65067 6.52503 5.19815 7.11747L10.6717 3.98069C10.5646 3.67249 10.5064 3.34142 10.5064 2.99676C10.5064 1.34169 11.8481 0 13.5032 0C15.1582 0 16.4999 1.34169 16.4999 2.99676Z" fill="#00ACEE"/>
</svg>
