<svg width="20" height="24" viewBox="0 0 20 24" fill="none" xmlns="http://www.w3.org/2000/svg">
<path fill-rule="evenodd" clip-rule="evenodd" d="M2.6611 2.6611C2.96798 2.35422 3.38419 2.18182 3.81818 2.18182H17.4545V16.3636H3.81818C3.24672 16.3636 2.68847 16.4917 2.18182 16.7321V3.81818C2.18182 3.38419 2.35422 2.96798 2.6611 2.6611ZM2.18182 20.1818C2.18182 20.6158 2.35422 21.032 2.6611 21.3389C2.96798 21.6458 3.38419 21.8182 3.81818 21.8182H17.4545V18.5455H3.81818C3.38419 18.5455 2.96798 18.7179 2.6611 19.0247C2.35422 19.3316 2.18182 19.7478 2.18182 20.1818ZM19.6364 17.4545V1.09091C19.6364 0.488417 19.1479 0 18.5455 0H3.81818C2.80554 0 1.83437 0.402271 1.11832 1.11832C0.402271 1.83437 0 2.80554 0 3.81818V20.1818C0 21.1945 0.402271 22.1656 1.11832 22.8817C1.83437 23.5977 2.80554 24 3.81818 24H18.5455C19.1479 24 19.6364 23.5116 19.6364 22.9091V17.4545Z" fill="#00ACEE"/>
</svg>
