<svg width="54" height="50" viewBox="0 0 54 50" fill="none" xmlns="http://www.w3.org/2000/svg">
<path d="M51.4536 0C44.9928 6.90145 38.5291 13.8029 31.9792 20.8009C39.2994 30.4771 46.5879 40.1079 54 49.9063C53.4194 49.9347 53.0487 49.9659 52.678 49.9659C48.114 49.9688 43.5501 49.9432 38.9861 49.9886C38.0923 49.9972 37.5577 49.7018 37.0375 49.006C32.6748 43.1894 28.2775 37.4013 23.8889 31.6047C23.6302 31.261 23.3572 30.9259 23.0152 30.4913C22.6962 30.7895 22.4088 31.0253 22.1587 31.2951C16.6693 37.1457 11.1684 42.985 5.7193 48.8725C4.96918 49.6819 4.23056 50.0909 3.11831 49.983C2.17563 49.8921 1.21571 49.9631 0 49.9631C0.451221 49.4348 0.732876 49.0798 1.04327 48.7504C7.30002 42.0676 13.5453 35.3706 19.8451 28.7248C20.6671 27.8586 20.7016 27.3388 19.9601 26.3703C13.528 17.9722 7.16781 9.51718 0.79323 1.0764C0.534568 0.732746 0.316142 0.360693 0.0804726 0C5.52387 0 10.9701 0 16.4135 0C16.5228 0.227208 16.5975 0.479977 16.7469 0.678784C20.9717 6.27379 25.2052 11.8631 29.4444 17.4467C29.5651 17.6058 29.7548 17.7137 29.9502 17.8784C35.4252 12.0335 40.8514 6.24539 46.2689 0.448736C46.3723 0.337972 46.3867 0.150525 46.4442 0C48.1169 0 49.7838 0 51.4536 0ZM47.1742 46.839C46.9385 46.4442 46.8322 46.2198 46.6827 46.0239C36.0259 31.9284 25.3632 17.8358 14.692 3.75178C14.4994 3.49617 14.1718 3.17523 13.9016 3.16955C11.6082 3.12411 9.31183 3.14399 6.74533 3.14399C7.711 4.43056 8.48411 5.4672 9.26585 6.49815C19.2186 19.6535 29.1713 32.8117 39.1384 45.9557C39.4086 46.3107 39.834 46.785 40.199 46.7992C42.4579 46.8759 44.7198 46.839 47.1742 46.839Z" fill="white"/>
</svg>
