<svg width="16" height="16" viewBox="0 0 16 16" fill="none" xmlns="http://www.w3.org/2000/svg">
<path fill-rule="evenodd" clip-rule="evenodd" d="M12.878 0.213013C12.594 -0.0710044 12.1335 -0.0710044 11.8495 0.213013L4.57675 7.48574C4.44036 7.62213 4.36374 7.80711 4.36374 8V10.9091C4.36374 11.3107 4.68935 11.6364 5.09101 11.6364H8.0001C8.19299 11.6364 8.37797 11.5597 8.51436 11.4233L15.7871 4.15062C16.0711 3.8666 16.0711 3.40612 15.7871 3.1221L12.878 0.213013ZM5.81829 10.1818V8.30124L12.3637 1.75579L14.2443 3.63636L7.69886 10.1818H5.81829ZM1.66756 3.12209C1.80395 2.9857 1.98893 2.90908 2.18182 2.90908H6.06545C6.46711 2.90908 6.79272 2.58347 6.79272 2.1818C6.79272 1.78014 6.46711 1.45453 6.06545 1.45453H2.18182C1.60316 1.45453 1.04821 1.6844 0.639039 2.09357C0.229869 2.50274 0 3.0577 0 3.63635V13.8182C0 14.3968 0.229869 14.9518 0.639039 15.3609C1.04821 15.7701 1.60316 16 2.18182 16H12.3636C12.9423 16 13.4972 15.7701 13.9064 15.3609C14.3156 14.9518 14.5454 14.3968 14.5454 13.8182V9.93453C14.5454 9.53287 14.2198 9.20726 13.8182 9.20726C13.4165 9.20726 13.0909 9.53287 13.0909 9.93453V13.8182C13.0909 14.011 13.0143 14.196 12.8779 14.3324C12.7415 14.4688 12.5565 14.5454 12.3636 14.5454H2.18182C1.98893 14.5454 1.80395 14.4688 1.66756 14.3324C1.53117 14.196 1.45454 14.011 1.45454 13.8182V3.63635C1.45454 3.44346 1.53117 3.25848 1.66756 3.12209Z" fill="#00ACEE"/>
</svg>
