<svg width="18" height="26" viewBox="0 0 18 26" fill="none" xmlns="http://www.w3.org/2000/svg">
<path fill-rule="evenodd" clip-rule="evenodd" d="M9.00044 0.0255127C7.87837 0.0255127 6.80225 0.481158 6.00883 1.29221C5.21541 2.10327 4.76967 3.20329 4.76967 4.3503V12.9999C4.76967 14.1469 5.21541 15.2469 6.00883 16.058C6.80225 16.869 7.87837 17.3247 9.00044 17.3247C10.1225 17.3247 11.1986 16.869 11.992 16.058C12.7855 15.2469 13.2312 14.1469 13.2312 12.9999V4.3503C13.2312 3.20329 12.7855 2.10327 11.992 1.29221C11.1986 0.481158 10.1225 0.0255127 9.00044 0.0255127ZM7.50463 2.82126C7.90134 2.41573 8.4394 2.18791 9.00044 2.18791C9.56147 2.18791 10.0995 2.41573 10.4962 2.82126C10.893 3.22678 11.1158 3.7768 11.1158 4.3503V12.9999C11.1158 13.5734 10.893 14.1234 10.4962 14.5289C10.0995 14.9344 9.56147 15.1623 9.00044 15.1623C8.4394 15.1623 7.90134 14.9344 7.50463 14.5289C7.10792 14.1234 6.88505 13.5734 6.88505 12.9999V4.3503C6.88505 3.7768 7.10792 3.22678 7.50463 2.82126ZM2.65396 10.8376C2.65396 10.2405 2.18041 9.75644 1.59627 9.75644C1.01212 9.75644 0.538574 10.2405 0.538574 10.8376V13C0.538574 15.294 1.43006 17.4941 3.0169 19.1162C4.35234 20.4813 6.08821 21.343 7.9423 21.5818V23.812H4.76925C4.18511 23.812 3.71156 24.2961 3.71156 24.8932C3.71156 25.4903 4.18511 25.9744 4.76925 25.9744H13.2308C13.8149 25.9744 14.2885 25.4903 14.2885 24.8932C14.2885 24.2961 13.8149 23.812 13.2308 23.812H10.0577V21.5818C11.9119 21.3431 13.6478 20.4814 14.9833 19.1162C16.5702 17.4941 17.4617 15.294 17.4617 13V10.8376C17.4617 10.2405 16.9881 9.75644 16.404 9.75644C15.8198 9.75644 15.3463 10.2405 15.3463 10.8376V13C15.3463 14.7205 14.6777 16.3706 13.4875 17.5872C12.3011 18.7999 10.6933 19.4829 9.01587 19.4872L9 19.4871L8.98416 19.4872C7.30681 19.4829 5.69908 18.7999 4.5127 17.5872C3.32257 16.3706 2.65396 14.7205 2.65396 13V10.8376Z" fill="white"/>
</svg>
