<svg width="24" height="20" viewBox="0 0 24 20" fill="none" xmlns="http://www.w3.org/2000/svg">
<path fill-rule="evenodd" clip-rule="evenodd" d="M9 0C8.66565 0 8.35341 0.167101 8.16795 0.4453L6.46482 3H3C2.20435 3 1.44129 3.31607 0.87868 3.87868C0.316071 4.44129 0 5.20435 0 6V17C0 17.7957 0.316071 18.5587 0.87868 19.1213C1.44129 19.6839 2.20435 20 3 20H21C21.7956 20 22.5587 19.6839 23.1213 19.1213C23.6839 18.5587 24 17.7957 24 17V6C24 5.20435 23.6839 4.44129 23.1213 3.87868C22.5587 3.31607 21.7956 3 21 3H17.5352L15.832 0.4453C15.6466 0.167101 15.3344 0 15 0H9ZM7.83205 4.5547L9.53518 2H14.4648L16.1679 4.5547C16.3534 4.8329 16.6656 5 17 5H21C21.2652 5 21.5196 5.10536 21.7071 5.29289C21.8946 5.48043 22 5.73478 22 6V17C22 17.2652 21.8946 17.5196 21.7071 17.7071C21.5196 17.8946 21.2652 18 21 18H3C2.73478 18 2.48043 17.8946 2.29289 17.7071C2.10536 17.5196 2 17.2652 2 17V6C2 5.73478 2.10536 5.48043 2.29289 5.29289C2.48043 5.10536 2.73478 5 3 5H7C7.33435 5 7.64658 4.8329 7.83205 4.5547ZM9.00023 11.0002C9.00023 9.34339 10.3434 8.00024 12.0002 8.00024C13.6571 8.00024 15.0002 9.34339 15.0002 11.0002C15.0002 12.6571 13.6571 14.0002 12.0002 14.0002C10.3434 14.0002 9.00023 12.6571 9.00023 11.0002ZM12.0002 6.00024C9.2388 6.00024 7.00023 8.23882 7.00023 11.0002C7.00023 13.7617 9.2388 16.0002 12.0002 16.0002C14.7617 16.0002 17.0002 13.7617 17.0002 11.0002C17.0002 8.23882 14.7617 6.00024 12.0002 6.00024Z" fill="#1A3657"/>
</svg>
