<svg width="24" height="24" viewBox="0 0 24 24" fill="none" xmlns="http://www.w3.org/2000/svg">
<path fill-rule="evenodd" clip-rule="evenodd" d="M23.9995 12.0344C23.9998 12.0229 24 12.0115 24 12C24 11.7072 23.8967 11.4394 23.7258 11.2335C23.6794 11.1774 23.6277 11.1257 23.5713 11.0792C23.4987 11.0192 23.4187 10.9683 23.3331 10.9279L1.63155 0.116579C1.21119 -0.0928397 0.709864 -0.0155314 0.366788 0.311616C0.0237119 0.638764 -0.0915927 1.14945 0.0758894 1.60001L3.94178 12L0.0758877 22.4C-0.0915936 22.8505 0.0237117 23.3612 0.366788 23.6884C0.709863 24.0155 1.21119 24.0928 1.63155 23.8834L23.3333 13.072C23.4171 13.0325 23.4955 12.9827 23.567 12.9243C23.8284 12.7109 23.9896 12.3862 23.9995 12.0344ZM17.8759 10.8227L3.23026 3.52645L5.94241 10.8226L17.8759 10.8227ZM5.94241 13.1773H17.8759L3.23026 20.4736L5.94241 13.1773Z" fill="#00ACEE"/>
</svg>
