<svg width="19" height="18" viewBox="0 0 19 18" fill="none" xmlns="http://www.w3.org/2000/svg">
<path d="M5.88135 14.8306C5.88135 11.398 8.66399 8.61536 12.0966 8.61536C15.5291 8.61536 18.3118 11.398 18.3118 14.8306V15.5384H5.88135V14.8306Z" fill="#00ACEE"/>
<ellipse cx="12.0962" cy="4.46153" rx="3.4529" ry="3.46153" fill="#00ACEE"/>
<path d="M13.4776 16.7308H13.9776V16.2308V15.523C13.9776 11.8142 10.9711 8.80774 7.26234 8.80774C3.55362 8.80774 0.547119 11.8142 0.547119 15.523V16.2308V16.7308H1.04712H13.4776Z" fill="#00ACEE" stroke="#F8F8F8"/>
<path d="M7.26198 9.11533C9.44628 9.11533 11.2149 7.34051 11.2149 5.15379C11.2149 2.96708 9.44628 1.19226 7.26198 1.19226C5.07768 1.19226 3.30908 2.96708 3.30908 5.15379C3.30908 7.34051 5.07768 9.11533 7.26198 9.11533Z" fill="#00ACEE" stroke="#F8F8F8"/>
<path d="M18.5987 14C18.5987 16.0716 16.9236 17.75 14.8587 17.75C12.7937 17.75 11.1187 16.0716 11.1187 14C11.1187 11.9283 12.7937 10.25 14.8587 10.25C16.9236 10.25 18.5987 11.9283 18.5987 14Z" fill="#F8F8F8" stroke="#00ACEE" stroke-width="0.5"/>
<rect x="14.168" y="11.3846" width="1.38116" height="5.53845" rx="0.69058" fill="#00ACEE"/>
<rect x="17.6206" y="13.4615" width="1.38461" height="5.52464" rx="0.692307" transform="rotate(90 17.6206 13.4615)" fill="#00ACEE"/>
</svg>
