<svg width="24" height="24" viewBox="0 0 24 24" fill="none" xmlns="http://www.w3.org/2000/svg">
<path d="M3 12C3 4.588 4.588 3 12 3C19.412 3 21 4.588 21 12C21 19.412 19.412 21 12 21C4.588 21 3 19.412 3 12Z" stroke="#02728E" stroke-width="2" stroke-linecap="round" stroke-linejoin="round"/>
<path d="M6 19C6.638 16.693 8.28 16 12 16C15.72 16 17.362 16.642 18 18.95M15 10C15 10.7956 14.6839 11.5587 14.1213 12.1213C13.5587 12.6839 12.7956 13 12 13C11.2044 13 10.4413 12.6839 9.87868 12.1213C9.31607 11.5587 9 10.7956 9 10C9 9.20435 9.31607 8.44129 9.87868 7.87868C10.4413 7.31607 11.2044 7 12 7C12.7956 7 13.5587 7.31607 14.1213 7.87868C14.6839 8.44129 15 9.20435 15 10Z" stroke="#02728E" stroke-width="2" stroke-linecap="round" stroke-linejoin="round"/>
</svg>
