<svg width="25" height="27" viewBox="0 0 25 27" fill="none" xmlns="http://www.w3.org/2000/svg">
<path fill-rule="evenodd" clip-rule="evenodd" d="M15.948 24.7863C19.4935 24.7863 22.3677 21.9121 22.3677 18.3666C22.3677 14.8211 19.4935 11.9469 15.948 11.9469C12.4025 11.9469 9.52833 14.8211 9.52833 18.3666C9.52833 21.9121 12.4025 24.7863 15.948 24.7863ZM15.948 26.0702C20.2026 26.0702 23.6516 22.6212 23.6516 18.3666C23.6516 14.112 20.2026 10.663 15.948 10.663C11.6934 10.663 8.2444 14.112 8.2444 18.3666C8.2444 22.6212 11.6934 26.0702 15.948 26.0702Z" fill="white"/>
<path fill-rule="evenodd" clip-rule="evenodd" d="M15.948 23.8565C18.98 23.8565 21.4379 21.3986 21.4379 18.3666C21.4379 15.3346 18.98 12.8767 15.948 12.8767C12.916 12.8767 10.4581 15.3346 10.4581 18.3666C10.4581 21.3986 12.916 23.8565 15.948 23.8565ZM24.5814 18.3666C24.5814 23.1347 20.7161 27 15.948 27C11.1799 27 7.31465 23.1347 7.31465 18.3666C7.31465 13.5985 11.1799 9.73325 15.948 9.73325C20.7161 9.73325 24.5814 13.5985 24.5814 18.3666ZM22.3677 18.3666C22.3677 21.9121 19.4935 24.7863 15.948 24.7863C12.4025 24.7863 9.52833 21.9121 9.52833 18.3666C9.52833 14.8211 12.4025 11.9469 15.948 11.9469C19.4935 11.9469 22.3677 14.8211 22.3677 18.3666ZM23.6516 18.3666C23.6516 22.6212 20.2026 26.0702 15.948 26.0702C11.6934 26.0702 8.2444 22.6212 8.2444 18.3666C8.2444 14.112 11.6934 10.663 15.948 10.663C20.2026 10.663 23.6516 14.112 23.6516 18.3666Z" fill="#667C97"/>
<path fill-rule="evenodd" clip-rule="evenodd" d="M9.52837 17.0827C13.0739 17.0827 15.948 14.2085 15.948 10.663C15.948 7.11751 13.0739 4.24333 9.52837 4.24333C5.98288 4.24333 3.1087 7.11751 3.1087 10.663C3.1087 14.2085 5.98288 17.0827 9.52837 17.0827ZM9.52833 18.3666C13.7829 18.3666 17.232 14.9176 17.232 10.663C17.232 6.40841 13.783 2.95939 9.52837 2.95939C5.27379 2.95939 1.82476 6.40841 1.82476 10.663C1.82476 14.9176 5.27375 18.3666 9.52833 18.3666Z" fill="white"/>
<path fill-rule="evenodd" clip-rule="evenodd" d="M9.52837 16.1529C12.5604 16.1529 15.0183 13.695 15.0183 10.663C15.0183 7.63099 12.5604 5.17307 9.52837 5.17307C6.49637 5.17307 4.03844 7.63099 4.03844 10.663C4.03844 13.695 6.49637 16.1529 9.52837 16.1529ZM18.1617 10.663C18.1617 15.4311 14.2964 19.2963 9.52837 19.2963C4.7603 19.2963 0.89502 15.4311 0.89502 10.663C0.89502 5.89493 4.7603 2.02965 9.52837 2.02965C14.2964 2.02965 18.1617 5.89493 18.1617 10.663ZM15.948 10.663C15.948 14.2085 13.0739 17.0827 9.52837 17.0827C5.98288 17.0827 3.1087 14.2085 3.1087 10.663C3.1087 7.11751 5.98288 4.24333 9.52837 4.24333C13.0739 4.24333 15.948 7.11751 15.948 10.663ZM17.232 10.663C17.232 14.9176 13.7829 18.3666 9.52833 18.3666C5.27375 18.3666 1.82476 14.9176 1.82476 10.663C1.82476 6.40841 5.27379 2.95939 9.52837 2.95939C13.783 2.95939 17.232 6.40841 17.232 10.663Z" fill="#667C97"/>
<path d="M18.5159 7.45308H12.7382L13.3802 2.31735H15.3061L18.5159 5.52718V7.45308Z" fill="white"/>
<path fill-rule="evenodd" clip-rule="evenodd" d="M15.5341 0.90266L19.5417 4.91023V8.50037L11.4013 9.04306L11.944 0.90266H15.5341ZM15.0023 2.18659L13.1452 2.18659L12.78 7.66437L18.2578 7.29918V5.44205L15.0023 2.18659Z" fill="white"/>
<path fill-rule="evenodd" clip-rule="evenodd" d="M15.6882 0.530762L19.9136 4.75618V8.8483L11.0019 9.44241L11.596 0.530762H15.6882ZM15.3801 1.27456H12.2919L11.8006 8.64372L19.1698 8.15244V5.06427L15.3801 1.27456ZM15.1563 1.8147L18.6296 5.28801V7.64711L12.3806 8.06371L12.7972 1.8147L15.1563 1.8147ZM14.8482 2.55849L13.4931 2.55849L13.1793 7.26502L17.8859 6.95125V5.5961L14.8482 2.55849Z" fill="#667C97"/>
</svg>
