<svg width="26" height="26" viewBox="0 0 26 26" fill="none" xmlns="http://www.w3.org/2000/svg">
<path fill-rule="evenodd" clip-rule="evenodd" d="M6.36551 0.0168328C6.81577 -0.0409288 7.27253 0.0508822 7.6655 0.278141C8.05672 0.504388 8.36311 0.852389 8.53801 1.26897L11.1516 7.36743L11.1528 7.37004C11.2881 7.68276 11.3446 8.02391 11.3175 8.36358C11.2902 8.70421 11.1796 9.03291 10.9954 9.32071L10.9885 9.33142L8.81792 12.6326C9.78663 14.6306 11.4023 16.2424 13.4026 17.2063L13.4068 17.2034L16.6597 15.0305C16.9484 14.8356 17.2816 14.7166 17.6285 14.6847C17.9754 14.6527 18.3247 14.7088 18.6441 14.8477L18.648 14.8494L24.7315 17.4622C25.1479 17.6371 25.4957 17.9434 25.7219 18.3345C25.9491 18.7275 26.0409 19.1842 25.9832 19.6345C25.7578 21.3933 24.8993 23.0098 23.5683 24.1815C22.2373 25.3531 20.5249 25.9996 18.7517 26C13.7785 26 9.00876 24.0244 5.49218 20.5078C1.97559 16.9912 0 12.2217 0 7.24854C0.000399693 5.4753 0.646904 3.76273 1.81854 2.43171C2.9901 1.10077 4.60679 0.242247 6.36551 0.0168328ZM7.87822 13.0823L6.93853 13.532C6.78469 13.2106 6.71588 12.855 6.73867 12.4993C6.76147 12.1437 6.87512 11.7998 7.06875 11.5006L7.07285 11.4943L9.24055 8.19735L9.23858 8.1928L6.6212 2.08555C5.36854 2.24837 4.21723 2.86001 3.38245 3.80835C2.54562 4.75902 2.08384 5.98202 2.0835 7.24854M7.87822 13.0823L6.94062 13.5364C8.11518 15.9619 10.0765 17.9183 12.5051 19.0866L12.5109 19.0894C12.8379 19.2442 13.1996 19.3112 13.5603 19.2838C13.9202 19.2565 14.2667 19.1362 14.5661 18.9347L14.5684 18.9331L17.8196 16.7613L23.9137 19.3785L23.9153 19.3792C23.7525 20.6319 23.14 21.7828 22.1916 22.6175C21.241 23.4544 20.018 23.9162 18.7515 23.9165M2.0835 7.24854C2.08356 11.6691 3.83964 15.9088 6.96543 19.0346C10.0912 22.1604 14.3309 23.9164 18.7515 23.9165" fill="#667C97"/>
</svg>
