<svg width="16" height="16" viewBox="0 0 16 16" fill="none" xmlns="http://www.w3.org/2000/svg">
<path d="M8.9169 0.913117L15.0717 4.84808L10.7785 7.59271L10.7782 7.59289L10.647 7.67686L10.6467 7.67703L8.9169 8.78289V6.90782V6.51623L8.53672 6.42239C8.41083 6.39132 8.28337 6.36641 8.16925 6.3441C8.14979 6.3403 8.13072 6.33657 8.11212 6.3329L8.10199 6.3309L8.09178 6.32932L7.86189 6.29378C7.81095 6.28495 7.74981 6.27888 7.72717 6.27663C7.72315 6.27624 7.72034 6.27596 7.71902 6.2758L7.71902 6.27579L7.71591 6.27545L7.597 6.26249L7.597 6.26246L7.59171 6.26194C7.25135 6.2285 6.90603 6.21868 6.55882 6.23484L6.55632 6.23497C6.2069 6.25298 5.85893 6.29978 5.51536 6.37186L5.51463 6.37201C5.17069 6.44471 4.82698 6.5443 4.48991 6.67581L4.48991 6.67581L4.48812 6.67652C4.15365 6.80851 3.82645 6.96951 3.51133 7.1609M8.9169 0.913117L3.51133 7.1609M8.9169 0.913117V2.70104V3.16481L8.45444 3.19963C8.33087 3.20894 8.20673 3.221 8.07705 3.23373L7.73188 3.27987L7.72501 3.28079L7.72501 3.28074C7.69814 3.28396 7.67747 3.28771 7.64559 3.29351C7.62711 3.29687 7.60488 3.30091 7.57549 3.30593L7.40476 3.33648C6.96235 3.42066 6.52707 3.53595 6.10257 3.68205C5.67924 3.8294 5.26595 4.01059 4.8663 4.22161C4.46733 4.43284 4.08418 4.67324 3.72247 4.94463M8.9169 0.913117L3.72247 4.94463M3.51133 7.1609C3.51141 7.16085 3.51149 7.16081 3.51157 7.16076L3.77067 7.58792L3.51133 7.1609ZM2.60989 7.82414C2.31882 8.07918 2.05687 8.36669 1.81911 8.67307L1.81886 8.6734C1.57852 8.98364 1.36126 9.32226 1.17346 9.68746L1.17229 9.68976C0.987297 10.0541 0.830868 10.4422 0.705021 10.8476M2.60989 7.82414L0.705021 10.8476M2.60989 7.82414C2.61016 7.8239 2.61043 7.82366 2.6107 7.82343L2.94013 8.19956M2.60989 7.82414C2.60962 7.82437 2.60936 7.82461 2.60909 7.82484L2.94013 8.19956M0.705021 10.8476L1.18252 10.9959M0.705021 10.8476L4.67166 7.14161C4.36277 7.26351 4.06107 7.41201 3.77088 7.58826C3.48068 7.76428 3.20219 7.96805 2.94013 8.19956M2.94013 8.19956C2.67684 8.43016 2.43614 8.69351 2.21413 8.9796C1.99232 9.26592 1.79167 9.57862 1.61812 9.91611C1.44643 10.2543 1.30041 10.6161 1.18252 10.9959M1.18252 10.9959C0.946544 11.7557 0.824962 12.5855 0.806272 13.4338L0.522689 10.7784C0.501965 11.066 0.495801 11.3522 0.502718 11.636C0.558012 11.3678 0.625261 11.1044 0.704997 10.8477L1.18252 10.9959ZM3.72247 4.94463C3.35995 5.21846 3.01773 5.52176 2.7021 5.8524L2.702 5.85251C2.38598 6.18336 2.0963 6.54189 1.83874 6.92366L1.83796 6.92481C1.58238 7.30138 1.36181 7.70898 1.17401 8.13342C0.98783 8.55558 0.838831 8.99308 0.730242 9.436C0.623251 9.88085 0.555081 10.3312 0.522701 10.7783L3.72247 4.94463ZM0.552294 14.7453C0.557373 14.7607 0.562483 14.7761 0.567625 14.7915C0.634022 14.992 0.707034 15.1891 0.784485 15.3833C0.78454 15.3835 0.784594 15.3836 0.784648 15.3838C0.787878 15.3919 0.791116 15.3999 0.794361 15.408M0.552294 14.7453L0.715214 13.4318C0.715237 13.4319 0.715261 13.432 0.715284 13.4321C0.743243 13.5634 0.773394 13.6935 0.805709 13.8226C0.810215 14.1127 0.825797 14.4043 0.853036 14.6962C0.85306 14.6964 0.853084 14.6967 0.853108 14.697C0.853715 14.7035 0.854328 14.71 0.854947 14.7165M0.552294 14.7453L0.767376 14.7248L0.769762 14.7246L0.854947 14.7165M0.552294 14.7453L0.552053 14.7445L0.76828 14.7245L0.770652 14.7243L0.854947 14.7165M0.794361 15.408C0.8761 15.6095 0.962358 15.8085 1.0595 16C1.00795 15.7883 0.969136 15.5743 0.935454 15.36C0.935036 15.3573 0.934619 15.3546 0.934202 15.3519L0.900512 15.3654L0.9001 15.3656L0.794361 15.408ZM0.794361 15.408L0.89822 15.3659L0.898646 15.3657L0.934113 15.3513C0.901644 15.14 0.874598 14.9285 0.854947 14.7165" stroke="#667C97"/>
</svg>
