<svg width="11" height="20" viewBox="0 0 11 20" fill="none" xmlns="http://www.w3.org/2000/svg">
<path fill-rule="evenodd" clip-rule="evenodd" d="M2.26125 2.30326C1.81909 2.75365 1.57068 3.36449 1.57068 4.00143L1.57068 14.3978C1.57068 15.4593 1.98466 16.4773 2.72155 17.2279C3.45844 17.9785 4.45788 18.4001 5.5 18.4001C6.54212 18.4001 7.54156 17.9785 8.27845 17.2279C9.01534 16.4773 9.42932 15.4593 9.42932 14.3978V4.00143C9.42932 3.55964 9.78093 3.2015 10.2147 3.2015C10.6484 3.2015 11 3.55964 11 4.00143V14.3978C11 15.8836 10.4205 17.3085 9.38909 18.3592C8.35764 19.4098 6.95869 20 5.5 20C4.04131 20 2.64236 19.4098 1.61091 18.3592C0.579463 17.3085 6.61993e-08 15.8836 1.32399e-07 14.3978L0 4.00143C-9.92988e-08 2.94019 0.413889 1.92241 1.15062 1.17199C1.88734 0.421579 2.88656 8.76578e-07 3.92845 0C4.97034 1.01144e-07 5.96955 0.421579 6.70628 1.17199C7.443 1.92241 7.85689 2.94018 7.85689 4.00143L7.85134 14.4035C7.85134 15.0402 7.60303 15.6508 7.16102 16.101C6.71902 16.5512 6.11953 16.8042 5.49445 16.8042C4.86936 16.8042 4.26987 16.5512 3.82787 16.101C3.38587 15.6508 3.13755 15.0402 3.13755 14.4035L3.14311 4.80416C3.14336 4.36237 3.49518 4.00444 3.92891 4.0047C4.36264 4.00496 4.71404 4.36332 4.71379 4.8051L4.70823 14.4035C4.70836 14.6157 4.79118 14.8197 4.93851 14.9697C5.08595 15.1199 5.28593 15.2043 5.49445 15.2043C5.70296 15.2043 5.90294 15.1199 6.05038 14.9697C6.19783 14.8196 6.28066 14.6159 6.28066 14.4035L6.28621 4.00143C6.2861 3.36465 6.03771 2.75354 5.59564 2.30326C5.15347 1.85288 4.55376 1.59986 3.92845 1.59986C3.30313 1.59986 2.70342 1.85288 2.26125 2.30326Z" fill="#1A3657"/>
</svg>
