<svg width="16" height="16" viewBox="0 0 16 16" fill="none" xmlns="http://www.w3.org/2000/svg">
<path d="M15.9977 8.66518C15.9977 8.22834 15.9977 7.79151 15.9977 7.35468C15.9606 7.09289 15.9335 6.82923 15.8846 6.56963C15.4898 4.48345 14.443 2.79447 12.7315 1.54544C10.889 0.200626 8.81818 -0.261167 6.57622 0.139158C4.48737 0.512337 2.80294 1.57821 1.55505 3.2909C0.211435 5.13495 -0.284351 7.21396 0.15718 9.44866C0.783306 12.6157 2.69567 14.6869 5.75833 15.6922C6.2775 15.8626 6.81819 15.9384 7.36044 15.9977C7.79698 15.9977 8.23353 15.9977 8.67007 15.9977C8.69501 15.9915 8.71996 15.9821 8.74522 15.9799C9.72151 15.8957 10.6591 15.6523 11.5232 15.1933C11.8734 15.0073 12.1655 14.9964 12.5288 15.1256C13.4072 15.4379 14.2999 15.7097 15.187 15.9977C15.4312 15.9977 15.6756 15.9946 15.9198 15.9999C15.9868 16.0014 16.0012 15.9871 15.9999 15.9197C15.9946 15.6754 15.9977 15.4308 15.9977 15.1864C15.6644 14.1555 15.3317 13.1246 14.9962 12.0943C14.9628 11.9923 15.0012 11.9124 15.0464 11.8297C15.3716 11.235 15.6117 10.6072 15.7788 9.95071C15.8864 9.52792 15.9432 9.0967 15.9977 8.66518ZM1.30123 7.91226C1.31807 7.57996 1.33959 7.12909 1.43313 6.68477C1.79297 4.97738 2.67728 3.60448 4.08325 2.57949C5.6626 1.42781 7.42966 1.05713 9.33891 1.42968C11.0561 1.76479 12.4228 2.67777 13.4527 4.0878C14.5079 5.53278 14.8849 7.15873 14.6657 8.92166C14.5537 9.82278 14.2556 10.6705 13.7782 11.4469C13.6155 11.7115 13.5902 11.9679 13.6906 12.2622C13.9092 12.9009 14.1078 13.5465 14.3136 14.1895C14.3289 14.2367 14.3735 14.295 14.3308 14.3334C14.2915 14.3689 14.2332 14.3265 14.1852 14.3112C13.5425 14.105 12.8977 13.9059 12.2591 13.6875C11.9644 13.5867 11.7106 13.6213 11.4446 13.7789C10.072 14.592 8.58962 14.8866 7.01401 14.6463C5.03273 14.3443 3.50016 13.3187 2.39009 11.6653C1.65608 10.5716 1.3137 9.34694 1.30123 7.91226Z" fill="#667C97"/>
</svg>
