<svg width="20" height="24" viewBox="0 0 20 24" fill="none" xmlns="http://www.w3.org/2000/svg">
<path fill-rule="evenodd" clip-rule="evenodd" d="M3.6 2.4C3.28174 2.4 2.97651 2.52643 2.75147 2.75147C2.52643 2.97651 2.4 3.28174 2.4 3.6V20.4682L8.90251 15.8235C9.31975 15.5255 9.88025 15.5255 10.2975 15.8235L16.8 20.4682V3.6C16.8 3.28174 16.6736 2.97652 16.4485 2.75147C16.2235 2.52643 15.9183 2.4 15.6 2.4H3.6ZM1.05442 1.05442C1.72955 0.379284 2.64522 0 3.6 0H15.6C16.5548 0 17.4704 0.379285 18.1456 1.05442C18.8207 1.72955 19.2 2.64522 19.2 3.6V22.8C19.2 23.2495 18.9488 23.6613 18.5491 23.867C18.1494 24.0727 17.6683 24.0377 17.3025 23.7765L9.6 18.2747L1.89749 23.7765C1.53171 24.0377 1.05059 24.0727 0.650902 23.867C0.251217 23.6613 0 23.2495 0 22.8V3.6C0 2.64522 0.379284 1.72955 1.05442 1.05442Z" fill="#1A3657"/>
</svg>
