<svg width="20" height="20" viewBox="0 0 20 20" fill="none" xmlns="http://www.w3.org/2000/svg">
<path d="M4.46976 10C4.46976 8.96465 4.72228 8.02083 5.22733 7.16856C5.73237 6.31629 6.41103 5.63763 7.26329 5.13258C8.11555 4.62752 9.05935 4.375 10.0947 4.375C10.9911 4.375 11.8182 4.56755 12.5757 4.95265C13.3396 5.33775 13.9709 5.8649 14.4696 6.53409C14.9684 7.19697 15.2777 7.94823 15.3977 8.78788H13.106C12.9798 8.13763 12.6294 7.60732 12.0549 7.19697C11.4804 6.7803 10.827 6.57197 10.0947 6.57197C9.46339 6.57197 8.8889 6.72664 8.37123 7.03598C7.85356 7.34533 7.44005 7.75884 7.13071 8.27652C6.82137 8.79419 6.6667 9.36869 6.6667 10C6.6667 10.6313 6.82137 11.2058 7.13071 11.7235C7.44005 12.2412 7.85356 12.6547 8.37123 12.964C8.8889 13.2734 9.46339 13.428 10.0947 13.428C10.827 13.428 11.4457 13.2229 11.9507 12.8125C12.4621 12.3958 12.7841 11.8624 12.9166 11.2121H15.2083C15.0883 12.0518 14.7948 12.8062 14.3276 13.4754C13.8604 14.1383 13.2607 14.6622 12.5284 15.0473C11.8024 15.4324 10.9911 15.625 10.0947 15.625C9.05935 15.625 8.11555 15.3725 7.26329 14.8674C6.41103 14.3624 5.73237 13.6837 5.22733 12.8314C4.72228 11.9792 4.46976 11.0354 4.46976 10ZM10 20C8.62375 20 7.32958 19.7412 6.11747 19.2235C4.91167 18.7058 3.84792 17.9893 2.92622 17.0739C2.01082 16.1521 1.29113 15.0884 0.767151 13.8826C0.24948 12.6768 -0.00619903 11.3826 0.000114094 10C0.00642708 8.61742 0.268419 7.32323 0.78609 6.11742C1.31007 4.91162 2.02976 3.85101 2.94516 2.93561C3.86055 2.01389 4.92114 1.29419 6.12694 0.776515C7.33273 0.258838 8.62375 0 10 0C11.3826 0 12.6767 0.258838 13.8825 0.776515C15.0946 1.29419 16.1552 2.01389 17.0643 2.93561C17.9797 3.85101 18.6962 4.91162 19.2139 6.11742C19.7316 7.32323 19.9936 8.61742 19.9999 10C20.0062 11.3826 19.7505 12.6768 19.2328 13.8826C18.7152 15.0884 17.9986 16.1521 17.0833 17.0739C16.1679 17.9893 15.1041 18.7058 13.892 19.2235C12.6799 19.7412 11.3826 20 10 20ZM10 17.803C11.0795 17.803 12.0928 17.601 13.0397 17.197C13.9867 16.7929 14.8169 16.2342 15.5302 15.5208C16.2436 14.8074 16.8023 13.9804 17.2064 13.0398C17.6104 12.0928 17.8093 11.0827 17.8029 10.0095C17.7966 8.92992 17.5915 7.91667 17.1874 6.9697C16.7834 6.02273 16.2247 5.19255 15.5113 4.47917C14.7979 3.76578 13.9709 3.20707 13.0303 2.80303C12.0896 2.39899 11.0795 2.19697 10 2.19697C8.92678 2.19697 7.91985 2.39899 6.9792 2.80303C6.03856 3.20707 5.21154 3.76894 4.49817 4.48864C3.78479 5.20202 3.22293 6.0322 2.81258 6.97917C2.40855 7.91982 2.20337 8.92992 2.19706 10.0095C2.19075 11.0764 2.38961 12.0833 2.79364 13.0303C3.19768 13.971 3.75638 14.798 4.46976 15.5114C5.18945 16.2247 6.01962 16.7866 6.96026 17.197C7.90722 17.601 8.92047 17.803 10 17.803Z" fill="#1A3657"/>
</svg>
